<svg width="108" height="101" fill="none" xmlns="http://www.w3.org/2000/svg"><path fill-rule="evenodd" clip-rule="evenodd" d="M72.2115 77.1016c-.6156.243-.2771.9261-.7575 1.2539-.641.4375-.3869 1.2622-.2532 1.8857.0708.3301.0712.7283.0067 1.0777-.1576.8519.2457 3.2186.1818 3.605-.0998.604-.0896 2.4551-.2857 2.8427-.6883 1.3606-.4533 2.8733-.4144 4.3674.0204.7813.477 2.6276.3062 2.8855-.125.189.0416.4895-.0103.7138-.1321.5712-.1989 1.3251.501 1.5417.3253.1007.4357.3071.7775.3633.5454.0479.553-.5872.9471-.9158.5163-.4304.2455-1.1974.0182-1.734-.1752-.4135-.1264-.9504-.1265-1.4271-.0002-.9699-.1722-1.8762-.0195-2.8826.1663-1.0963-.5165-1.9659.1062-3.2271.9428 1.3805 2.2678 2.522 3.4847 3.5919 1.1833 1.0403 2.5446 1.6524 3.4534 3.3144.3798.6946 1.2287.3001 1.5184-.3973.2174-.5232.3373-.9172.2414-1.4893-.1003-.5977-.0153-.96-.3975-1.4751-.3701-.4987-.9205-.4961-1.2881-.8738-.5978-.6144-.9935-1.4009-1.8728-1.769-.6539-.2738-.9519-.6762-1.2746-1.2555-.3301-.5925-.9403-.9327-1.123-1.641.2902-.4105.3981-1.0393.9475-1.2802.5626-.2467.3176-.9504.6014-1.4079.8739-1.4085 1.7873-2.9942 1.2514-4.7606-2.1649-.1923-4.5003-.4937-6.5198-.9067Zm2.8895 3.298c-.6185.1135-1.1934-.1462-1.6583.3499-.269.6646.3015.9027.0816 1.6746-.2847.9993.6974 1.0045 1.2053.3546.485-.6205 1.3085-.6169 1.3854-1.4648.0616-.6792-.4039-1.0262-1.014-.9143Zm15.7783-3.999c-1.2587.1615-2.2036 1.1484-2.4345 2.4276-.2263 1.2535.0867 2.5595-.1491 3.6676-.2451 1.151.3043 2.6979 1.2651 3.3202.8629.559 1.3354 1.6312 2.2245 2.4163 1.8193 1.6066 1.96 5.0417-.5115 5.8876-1.466.5018-2.8619.921-3.0593 2.3737-.082.6034.6699 1.005.9243 1.3968.2397.3692 1.057-.1904 1.4768-.3683.4809-.2038 1.239-.3573 1.6144-.816.3959-.4839.7697-.8572 1.2886-1.3528 1.1045-1.0549 1.472-2.1217 2.0843-3.573 1.0559-2.5029-.8653-4.6444-2.2665-6.4008-.845-1.0592-2.2843-2.2497-2.2235-3.6069.0472-1.0522-.0973-2.9591 1.2111-2.6565 1.4349.3318 2.4703-.0233 2.616-1.6951.13-1.4894-1.7075.0404-2.5815-.7605-.2083-.1909-.4841-.2073-.7206-.3699-.2364-.1627-.4945.0762-.7586.11Zm-30.314-.1401c-1.8264.1953-5.323.3699-5.1813 2.8217.1236 2.1409.1253 3.9403.2324 5.8191.2319 4.0696-.8107 8.6614 1.419 12.2852 1.6884-.4245 2.9642.3295 4.5741.2548.713-.033 1.3181-.2529 1.5739-.9902.2536-.7313.7114-1.059.4377-1.9751-1.8421.796-3.6478-.0938-5.4007-.6991-.0014-.4863-.4698-.8669-.2624-1.2852.4189-.8451-.098-1.6973-.1068-2.535-.0081-.7738 1.3092-.8008 1.9671-.9667.689-.1737 1.7211-.5081 2.288-.8142.1614-.5609.3242-1.78-.9751-1.8142-.3096-.0081-.3621.0692-.5773-.0609-.3736-.2259-.787.0828-1.0947-.1218-.3243-.2157-.9806.6342-1.1797.3426-1.1146-1.632.0076-4.2152-.1582-6.327-.0717-.9116 1.1007-1.5748 2.0647-1.2548.5328.1769.9389-.3856 1.069-.9005.0584-.2307-.0318-.3984.1282-.6817.4146-.7343-.3156-1.1507-.8179-1.097ZM4.0068 74.1494c-.26117.4746-.44881.6988-.69921 1.1183-.30927.5181.11639 2.0984.0221 2.4497-.13945.5195.07886 1.9406-.03677 2.1627-.27984.5374-.03467 1.2923.01143 1.8182.07353.8394-.47614 1.8635-.12268 2.8628.1804.5101-.22478.9766-.42042 1.4317-.17621.4101-.3067.8224-.42728 1.3237.28336.7021.76036 1.1621.97562 1.8754.15773.5228.15725.9521.01057 1.4573-.59253 2.0401-.54853 4.3178-.41775 6.4865.31507 1.155 1.97743 2.6963 2.28708 3.2843 2.1766-.394 3.3811-2.5138 4.89521-3.6949.2983-1.2873.5621-2.2871.6205-3.5245.0325-.6881-.2097-1.8162-.3496-2.1804-.1338-.3481-.46479-.3212-.55118-.6921-.3226-1.3844-1.83266-1.0871-2.40681-2.1181-.51205-.9195-1.23745-1.5812-1.96086-2.2701 1.85704-2.5383 4.77075-4.827 4.53426-8.2408-1.73798-1.5529-3.40434-3.3408-5.96421-3.5497Zm1.45902 15.9917c-.8918 2.7358-.47471 5.6522-.08896 8.1124.62892-1.0475 1.14363-1.6877 2.20069-2.1956.47662-.229.69816-.823.83885-1.0107.36251-2.3855-1.74256-3.6227-2.95058-4.9061Zm-.13938-12.6943c-.0863 1.8595.15115 3.4099-.18183 5.3477-.1143.6654.80084.769.7995-.017-.00152-.8967.48539-1.1979.96715-1.78.38832-.4691.58882-.9248.92561-1.4056-.58653-.9772-1.48538-1.7281-2.51043-2.1451Zm18.00846-3.5119c-.3632-.0519-.5756.2898-.6828.6218-.2817.8719-1.0958 1.0853-1.153 2.0575-.0482.8194-.2508 1.4456-.3821 2.1893-.1607.9096-.0617 1.7212-.5538 2.5121-.3988.6409-.147 1.4327-.44 2.1053-.6511 1.494-.5427 3.1892-.784 4.7484-.241 1.5572-.355 3.2012-.6551 4.668-.3036 1.4839-.7919 3.0937-1.0258 4.6819-.1318.8956-.2055 1.9238.8823 2.1393.9857.1954 1.4796-.6995 1.5252-1.4287.0875-1.3984.0918-3.1974.3836-4.6619.2836-1.4239-.1984-3.3915.8073-4.4384.5619-.5849 1.687.2253 2.498-.3363.7119-.4931 1.0307.9375 1.0063 1.596-.0268.7184-.068 1.6213.0606 2.4908.1314.8881.7137 1.3691.3312 2.1606-.4322.8944.4593 1.7869 1.1671 2.4918.5766.5744 1.2705-.2506 1.3311-1.0695.1223-1.6558-.476-3.0939-.5269-4.705-.0155-.491.0755-2.0563-.216-2.5381-.5875-.9717.5897-1.1306 1.1094-1.8369.5542-.7533-.7024-1.1478-1.3647-1.5118-.5761-.3167-.4511-1.3743-.5942-2.0496-.3075-1.451-.6954-3.1251-1.1985-4.6611-.4608-1.4071-.3856-2.9802-.9663-4.3313-.1486-.3458-.1426-.8347-.5589-.8942Zm-1.2465 7.7007c.1338 1.2074.1403 1.7444-.4191 2.9387-.5192 1.1086.2561 1.7487 1.322 1.5706 2.0177-.3369-.1176-3.0415.0631-4.582.0484-.4132-1.0292-.4962-.966.0727Zm23.2531-3.9807c-.2601.4291-.6699 1.1437-1.1715 1.5875-.5791.5125-1.1782 1.1485-1.259 1.9994-.0653.6879-.7944.9397-1.1847 1.5013-.7403 1.065-1.2589 1.988-1.7672 3.201-.1859.4438-.5887.4886-.6105.0179-.1233-2.6642.3792-5.0272.0155-7.6405-.0623-.448-.634-.6997-.9631-.6879-.1747.0063-.1613.4741-.3572.5446-.7854.2824-.8815 1.4507-.8991 2.3442-.0468 2.3721.0506 4.9409-.0439 7.1914-.0248.592-.0004 2.5133-.1705 2.8324-.1242.2329.0386.4489.0745.7374.0681.5466-.209 1.8166-.1899 2.2013.0309.6269.0432 1.3304.3234 1.8247.2101.3705-.173.9442-.1086 1.4224.0544.4042.2292.777.6699.9177.3458.1103.5568.3292.9225.2888.5308-.358.3702-1.0494.7915-1.5824.4519-.5717.1708-1.1958-.0102-1.8083-.2353-.7972-.0654-1.7316-.2921-2.504.4571-2.0472 1.7334-3.4731 2.7562-5.0248.5998.4653 1.2779 2.7122 1.38 2.9168 1.185 2.3743 1.5083 5.914 4.0601 7.3203.5485-.5116.5603-.8359.7802-1.3327.3512-.7934.0312-1.4915-.4052-2.1458-2.0247-3.0366-2.0333-6.5707-4.0299-9.7069.5091-1.7993 2.3151-3.0735 3.2006-4.6373.3487-.6157.5315-1.2936.1582-1.9537-.3273-.5785-1.4216-.2343-1.67.1752ZM12.5837 43.4914c-.4212-.1689-.1936.3919-.4768.5293-.5717.2774-.5098.9062-.5817 1.4398-.1597 1.1857-.2565 2.5114-.5667 3.5794-.1344.4625-.2074.9319-.185 1.4578.0509 1.1932-.2646 2.4141-.4755 3.5682-.129.706-.32729 1.483-.1796 2.1813.2288 1.0812-.59564 2.1347.0353 3.274.3083.5568-.67342 1.2335-.83143.6861-.7255-2.5125-1.04525-4.5086-2.29728-7.0198-.32498.0152-.60777.2825-1.07877.3751-.67407.1326-.75865.6491-.93114 1.2322-.489 1.6532-1.0081 3.0977-.7997 4.442-.94657-.8553-.68769-2.2194-1.21945-3.3136-.3207-.6599-.27793-2.4779-.20583-2.8832.11591-.6519-.63292-4.7756-.64683-5.0564-.0561-1.1375-.39337-2.0456-.19154-3.2822.10763-.6594-.27889-.9273-.998767-.7256-.9698096.2715-1.0074324 1.0254-.9238051 1.8382.1538251 1.4957-.0122869 2.8717.3735611 4.3481.130013.4978.373275 1.7513.4369 2.1616.070197.4528.292691 4.591.388421 5.0429.34279 1.6178.33089 3.3758.66711 5.0345.0883.4353-.02457.9537.4711 1.1895.48071.2286.42299.6822 1.01076.9672 1.34337-1.8047 2.41843-3.8068 2.6456-6.2376.06248-.6692.81122-.6402.90666.0312.33146 2.3317 1.26927 4.0745 1.89609 6.2938.20735.7341.42547 1.2645 1.18124 1.7258.4764.2908.7631.0988.9218-.3253 1.1113-2.9714.8473-6.2474 1.0845-9.4148.2254-3.01.6928-6.0244 1.1496-9.0142.1063-.6955-.1555-1.1869.5893-1.8027.421-.3482.0933-.7315-.006-1.0918-.1564-.5666-.4441-1.2997-1.1621-1.2308Zm47.787 1.2562c-.7428.1847-.7207.2396-1.0727.2812-.7156.0845-1.0241.7518-.9389 1.3594.6819 4.8616.5986 9.7228 1.2145 14.5556.0766.6008-.1763 1.3157.5062 1.6389.3063.1452.1655.481.4252.7377 2.3911-.1027 4.6969.1013 6.8942.9909.9426-.8455.8221-1.5869.9637-2.7268-1.6119-1.4095-3.8756-1.5008-5.6186-1.0018-1.9684-5.145-.7188-10.6602-2.3736-15.8351Zm-19.1583.8578c-.2552.5699-.8721 2.6385-.9892 2.9197-.3781.908-.2295 1.9885-.3324 2.9376-.1911 1.7636-.5074 3.5796-.2596 5.3844.2699 1.9657-.0041 4.1854 1.1635 5.823.1927.2703.5864 1.1914.8472 1.3947.4176.3255.9638.7514 1.4606.5831.8347-.2827 1.6959-.6888 2.3531-1.2852.7006-.6358.6551-1.7465 1.2234-2.4881.561-.732 1.0483-1.5622 1.1015-2.5183.1037-1.8652-.1511-3.5768-.022-5.4567.0707-1.0319-.3438-1.9327-.2706-2.9065.0599-.7982-.5333-3.911-1.0914-4.0539-.5649-.1447-1.1423-.0998-1.4475-.6488-.2268-.4079-.6968-.3263-1.0997-.5448-1.0134-.5496-2.1997-.1166-2.6369.8598Zm2.611 1.735c-.1914.0018-.6574.2472-.7072.555-.2065 1.2766-1.1933 2.2229-.9902 3.5448.1889 1.2296.1028 2.4765-.0843 3.6342-.1907 1.1805.1752 2.4189.3276 3.5714.1411 1.0658.2163 2.5265 1.1479 2.9769.5748.278.8821-1.0473 1.1714-1.5608.2454-.4354.6506-.8001.8057-1.371.3154-1.1607.3401-2.3959.183-3.6245-.3105-2.4284-.5819-4.8206-.7011-7.2358-.0206-.4169-.9001-.4926-1.1528-.4902Zm-14.0575-3.6695c-.6323.0923-1.0966.2882-1.6733.4246.0833 1.5922-.3141 3.1584-.3324 4.7463-.0085.7398-.1687 2.8588.0261 3.2399.2648.5181.2215 2.282.2356 2.9085.0174.7761-.3962 1.0945-1.1262.8093-.9047-.3534-1.3574.1566-2.2342.215-.5586.0372-.5835-.5525-.5629-1.053.0791-1.9156.0068-3.9108-.18-5.7598-.0822-.8133.3127-1.6741-.0557-2.5336-.2616-.6101.2792-1.117.0352-1.8174-.1763-.5059-.4989-.5066-.971-.4152-.7264.1404-.8119 2.7023-.8307 3.3347-.063 2.122.0801 4.4272.1013 6.4741.0037.3562.0603 2.7559.0728 3.2894.0274 1.1724.2273 2.3994.365 3.5572.154 1.2948-.1794 2.9529 1.5122 3.2303 1.4568-1.7356.1508-3.5377.4181-5.5616 1.3624.1203 2.1324.062 3.4842-.0226.1802 1.0149.2464 1.8201.3925 2.7138.1041.6371-.1696 1.2145.2234 1.8431.2995.4792.4581.8823.5376 1.4158.1057.7093.5877 1.2909 1.2803.9388.6656-.3384.426-1.1259.1199-1.6727-.2567-.4587.1395-2.9143.0027-3.6002-.1418-.7109.0953-1.4042.0884-2.169-.0078-.8553-.0809-1.6982-.5971-2.4882-.3659-.5599-.3902-5.3729-.5111-7.2427-.1049-1.6223 1.1015-3.233.1793-4.8048Zm47.3677-.0399c-.2012.5753.0746 1.4284.0778 2.1134.0064 1.3633-.304 2.9302-.0269 4.3117.2908 1.4499.353 2.8061.2607 4.3268-.0884 1.4554.3748 2.8448.289 4.3158-.0857 1.4679.0537 2.9528.2337 4.3242.094.7156.7933 1.1605 1.15 1.6838.3353.4923 1.4134.1206 2.0108.4597.6488.3682 1.5523.0343 2.2733.4067.7817.4038 1.5068-.7832 1.4234-1.4564-.0834-.6721.2048-2.0215-.81-1.8612-.872.1375-1.3748-.286-2.1208-.1808-.7785.1097-1.3883-.1766-1.8628-.8921-.5034-.7589.106-1.4039.1368-2.1216.0292-.6789-.3051-1.483-.1684-2.1526.1324-.6487 1.2928.0788 1.9237.1189 1.2962.0823 3.4937.3028 3.4189-1.4743-.0386-.9154.2932-2.0629-.5246-1.7852-.8187.2782-1.3551-.4404-2.1668-.1168-1.5403.614-3.2149-.0738-3.0972-1.8169.0318-.4711-.2451-.6868-.1675-1.0802.0734-.3715.1117-2.5038.1459-3.2033.0312-.6372-.3184-1.6502.5092-1.6816.4707-.018 3.5713-.6044 3.903-1.2649.3178-.6328.7973-1.1828.5289-2.1051-1.9522.0154-7.1689.6423-7.3401 1.132ZM57.5331 5.02246c-.4947.01895-2.1279.14801-2.3848.62587.17 1.54653.3206 2.78961.293 4.18422-.0307 1.55325-.0755 8.90895.2116 10.08295.1578.6451.2413 1.1617-.0286 1.8108-.2546.6126.0128 1.2735.2446 1.8225.518 1.2262-.275 2.6061.1743 3.9521.414 1.2405-.3391 2.5248.377 3.7568.2965.3371.7457.5869 1.1891.5537.3492-.0262.7109.2712 1.0129.3196.241.0385.4253-.5052.7057-.4266 1.1042.3094 2.2923.3861 3.2727.1715.2979-.9341.518-1.7859.0926-2.7416-1.3894-.184-3.0915.1979-4.2754-.7942-.2193-.5084-.0639-1.032-.031-1.5722.0466-.7697-.2551-1.4239-.1187-2.1726.1656-.9094-.4855-1.5674-.553-2.5188-.0251-.3529.6325-.1335.927-.2075.6428-.1615 1.4483.2312 2.1379-.169.3945-.8097.1249-1.9583-.2888-2.6638-.9639-.492-1.7269.1837-2.7658-.0302-.1397-1.5048-.3188-2.942-.2951-4.4785.0112-.7327.2969-4.43.5976-5.05175.1552-.32117-.026-.74226-.0614-1.09249-.0501-.49662.1779-1.02848.6544-1.3127.354-.21116.7323-.02333 1.0837.07677.3688.10506.6581-.56062 1.0577-.38908.302.12953.3187.48957.7325.51681 1.395.09191.7619-1.54663.924-2.35947-1.6606-.32775-3.3057.04648-4.8857.10687ZM19.4467 3.72795c-.6579.20126-.9819.45452-.9132 1.12782.094.92038-.1069 1.63588-.4149 2.3569-.3976.93114-.2292 2.1846-.0458 3.07283.1914.9274-.2469 2.1395-.1142 3.1285.262 1.9524.0839 4.2033.2799 6.2349.0845.8751.4917 3.4862.473 3.8587-.0442.8799-.1053 1.9071-.0063 2.7927.1083.9702-.1207 1.9539.1827 3.1083.2843 1.0816-.1141 1.6948-.2407 2.7114-.0822.6609.2543 1.142.7619 1.5884.4943.4346 1.0545.4864 1.2257-.3511.169-.827.7572-1.833.7233-2.0158-.0325-.1748.0579-.6048-.1397-.783-.3481-.314-.0102-3.1651.0369-3.5334.0419-.3276.2248-.7763.0361-1.149-1.2246-2.4193-.6598-4.5546-.4985-6.987.1472-2.2188-.4393-4.4064-.6207-6.6859-.0394-.4946-.0733-.9531.0506-1.4227.5106-1.93443.7224-4.00644.5458-5.90787-.0578-.62168-.5803-1.37147-1.3219-1.14468Zm16.5676-.24357C34.709 5.35885 34.465 7.8349 34.4077 10.2104c-.0571 2.3659-.1513 4.6429-.3381 6.8494-.1841 2.1735-.2587 4.685-.0608 6.8814.1031 1.1433-.2016 2.3413-.0168 3.5505.172 1.1253.573 2.086.52 3.2737-.0309.6937.4286 1.1318.91 1.5635.6161.5525 1.4645.7377 2.2671.7433 1.4992.0101 3.1853.4475 4.4096-.8076.644-.6603.9189-1.3391.759-2.2517-.1219-.6958.1757-1.1815.3564-1.8092.1766-.6134.3246-1.1439.2757-1.8152-.0608-.8319.373-1.3439 1.0039-1.8334.5622-.4361.0723-1.3652-.3288-1.7651-.3711-.37-.6398-1.1463-1.4127-.9014-.2955.0935-.4577.022-.7066-.0797-.5453-.223-.9911.0234-1.4576.2782-.6012.3284-.7302 1.2274-.4766 1.7634.215.4544 1.0252.6038 1.1505 1.2476-.2251.8449-.5301 1.8463-.3686 2.7444.0629.3495-.1926.7535-.1152 1.0859.1301.5589-.2928 1.3811-.8472 1.4068-.5823.027-1.1009-.3157-1.8805-.0996-1.4221.3942-1.7575-2.5875-1.7686-2.7712-.194-3.2365.0084-6.6195-.4846-10.1132-.0869-.6155-.0384-1.1583.2908-1.742.4618-.8187.1202-1.6943.0432-2.5326-.0523-.5695.5335-1.0906.7744-1.5094.1509-.2625.026-.6552.0119-1.0151-.0372-.94922.2824-1.88464.2144-2.89103-.0438-.64701.2441-1.16535.9415-1.35003.8964-.23727 1.3646.70025 2.2706.66101.4307-.01857.5486-.37613.7954-.71483.3866-.53043-.0648-1.08087-.5502-1.47681-.2269-.18516-.5169-.14449-.7613-.31232-.6576-.45176-1.3256-.44461-2.1331-.48471-.596-.02963-.8639-.38976-1.6805-.499ZM1.90802 0C.360721.493477.866104 2.14107 1.05603 3.35919c.19592 1.25727-.26279 2.68912.09001 3.94267.11963.425-.02639.66578-.169925 1.1585-.11944.41023.157345.67788.01524 1.06468-.220308.59916.084295 1.16046.055145 1.75076-.068956 1.3988.8298 2.6501.25822 4.0329-.30346.7342-.29793 1.3132-.27393 2.0932.01247.4069.49281 2.4064.535 2.8889.14364 1.6417.02801 2.9694.14078 4.674.04562.6897.24821 1.1758.00848 1.7989-.28737.7467.20402 1.7208.40489 2.1828.06972.1602-.14963.4642-.07362.7211.27298.9235.61749 1.9107.31746 2.8568-.23641.7456.28336 1.5309 1.09449 1.5773.37194.0214.51109-.4805.51928-.842.10525-4.6524-.33193-9.2286-.50957-13.6948-.03981-1.0001.05734-2.0875.60635-2.8898.43537-.6365.1221-1.6431.73578-2.203 2.1045-1.9199 2.50015-4.78267 3.58188-7.38654.09249-.63578-.77008-.73189-.65302-1.22108.12687-.52986-.22707-.86722-.63539-1.24993-.89914-.84246-1.29823-1.67369-2.48501-1.99181-.58301-.15621-.89771-.66788-1.15192-1.08706C3.11804.960666 2.55989.156015 1.90802 0Zm1.07477 5.44015c.59844 1.62369-.10401 2.85648-.09963 4.39148.00219.75477.07781 1.43737.044 2.16197-.02924.6268.61568 1.5354.77427.7845.36623-1.7347 1.6554-2.2971 2.0663-3.72102.44795-1.55282-.87218-2.82123-1.87085-4.02249-.38871-.46767-1.16364-.27165-.91409.40556Zm74.77801-.25956c-2.0038.20383-1.4296 2.23317-2.2403 3.42948-.3231.47681-.7341 2.62383-.842 3.21823-.2223 1.2234-.0549 2.4683-.6481 3.5056-.6361 1.1122-.0373 2.5132.009 3.7162.0261.6778-.5999 1.4808-.1203 2.1581.437.6171.0323 1.1328-.0067 1.7996-.0701 1.1965.3019 2.4022.3624 3.5867.0612 1.1989-.0109 2.5391.5152 3.6016.6152 1.2426 2.177 2.5961 3.3651 1.8747 1.3004-.7895 2.5979-2.238 2.8057-3.6565.1701-1.1611.8966-2.2671 1.0055-3.5661.2042-2.4342.5519-4.8392.6065-7.2711.0545-2.4307-.4287-4.761-.1694-7.2092.1289-1.21682-.5555-2.2876-.4501-3.64954.1087-1.40471-3.8586-1.57177-4.1925-1.53777Zm.8353 3.0302c-.437.25974-.2266.6915-.3414 1.0863-.5394 1.85491-1.156 3.60331-1.3635 5.42821-.1954 1.7179.289 3.6434-.1146 5.3697-.1104.4721.1967 1.1089-.2253 1.4129-.4076.2937-.2555.753.0436 1.1216.5632.6937.3614 1.9035.0785 2.5157-.5754 1.2456.2215 5.0008 1.5002 3.6022 1.3482-1.4745 1.6623-3.4689 1.6567-5.3941-.0055-1.8551.7536-3.6523.2716-5.4144-.2306-.8431.1541-1.7359.2608-2.5369.1056-.7913-.0863-1.6339.0836-2.4795.1754-.8732.2093-1.7751-.217-2.5618-.5107-.94255-.2967-2.13495-.592-2.97313-.8359-.01667-.5822.55034-1.0412.82322Zm28.6799-6.28131c-.134-.14277-.591-.18849-.763-.01533-1.979 1.99724-1.32 5.43673-1.668 8.31505-.357 2.9555-.642 6.0273-.88 9.0027-.119 1.4943-.707 2.9723-.713 4.5149-.004.8473-.832 1.8915-1.166.8201-.352-1.1308-.692-1.4337-.851-2.3144-.281-1.5564-1.148-2.9402-1.7071-4.3505-.5721-1.4445-1.3005-2.901-1.9614-4.3602-.2834-.626-.6885-1.0661-.7125-1.8203-.0283-.8869-.5053-1.5026-.7434-2.32223-.2407-.82846-.9993-1.15773-.9099-2.20536.0969-1.13707-1.2219-1.19717-1.7201-.419-.8833 1.37947-.3538 3.0745-.579 4.54469-.2274 1.4844-.1184 2.9513-.111 4.5311.0141 2.9789-.2857 6.0191-.015 9.0174.0689.7628.2411 1.5601-.0882 2.2873-.3332.7356.4311 1.4551.166 2.2006-.2689.756.0972 1.5039.134 2.2458.0422.8527 1.6264 1.3714 1.6148.4502-.0387-3.0701.2722-6.0511-.1734-9.0622-.2294-1.5493.0934-3.0469-.0131-4.5262-.1047-1.4526.0926-3.094.3426-4.4382.1147-.6162-.0705-2.018.4985-1.3872.5933.6575.4202 1.2982.557 2.1256.1578.9539 1.4806 3.1013 1.6374 3.3748.3301.5762 1.2268 2.9415 1.3704 3.7084.1716.9167-.3462 1.449.2586 2.2923.305.4254.4908.6486.569 1.1103.0612.3619.2452.6241.5028.7909.668.4319 1.255 2.6813 1.392 2.9795.138.2992.046.8432.144 1.1646.232.7543 1.323 2.0225 1.897 1.1051.504-.8077.337-1.615.93-2.2935.579-.6625.452-1.5771.583-2.236.136-.6827.612-1.435.797-2.2417.338-1.4805-.025-3.0351.143-4.5192.169-1.4946.452-2.9784.717-4.5227.143-.8262.106-1.5331.217-2.3257.107-.7656-.447-1.5472-.193-2.2245.491-1.30882.367-3.05947.585-4.46056.116-.74922.827-1.74151.588-2.15241-.202-.34746-1.037-.92152-.59-1.69798.166-.28802.048-.54319-.086-.68597Z" fill="#000"/></svg>
