<svg data-name="Layer 1" xmlns="http://www.w3.org/2000/svg" viewBox="0 0 1716.7 1489.01">
  <path d="M575.16 215.91c1 1 .73 3.21.73 5.17a62.31 62.31 0 0 0-13.31 0c-2.4 1.79-2.79 5.59-4.43 8.14-1.79.3-1.61-1.35-3.7-.74-.61-12.29 10.07-13.47 20.71-12.57ZM537.44 263.24c-2.23 4.9-7.84 9.6-14.05 8.14 2-4.87 7.78-10 14.05-8.14ZM482 267.68c-4.22 2.36-7.05 1.66-11.83 2.95a19.67 19.67 0 0 0-1.48 9.62c-7.4-.5-2.66-6-4.44-11.83 5-2 16.28-9.47 17.75-.74ZM556.67 271.38c-2.2 4.86-6.87 7.6-11.84 10.35-6 3.34-14 8.26-20 8.13 5.81-10.94 20.17-13.35 31.8-18.48ZM552.23 283.21a21.09 21.09 0 0 1-8.88 6.65c-2.27.56-3.15-1-3.69-1.48 3.41-2.8 7.65-8.26 12.57-5.17ZM592.9 311.31a5.48 5.48 0 0 1 4.44 3c.55 2.28-.53 2.7-1.48 3.7-3.48.76-4.32-1.38-5.17-3a3.27 3.27 0 0 1 2.21-3.7ZM578.12 316.49c2.08.63 3.32 2.1 3 5.17-.2 1-.56 1.81-1.46 1.59a4.63 4.63 0 0 1-4.45-1.59c-1.2-1.68.56-4.94 3-5.17ZM871.74 490.21c-2.2-2.67-1.79-4.17-.66-4.9s4.42-2.16 5.06-1.7c.87.79 3.52 2.61 3.15 3.46-.59 1.32-6.28 3-7.55 3.14Zm12.55-1.41c-.2-5.22-4.08-6.76-7.4-8.87-4.3-.16-5.15 1.48-10.35 3-.78 4.49.45 11.5 6.66 12.57 4.83-1.16 8-3.87 11.09-6.66ZM850.35 491.16c.8-2.4 5-2.52 5.84-2.36 2.48.52 2 2.36 2.21 4.44-.4 2.31-4.28 1.14-5.91 2.22-.64-.59-1.54-2.93-2.14-4.3Zm13.23 5.78c.26-4.8-.8-9.81-3.69-13.31-2.93 0-12 2.18-13 4.07-1.77 3.55.32 10.06 4.12 13.68 2.8-.79 10.13-1.21 12.57-4.44ZM165.44 508.77c1.71 4.45 2.46 9.87 4.44 14.05h-4.44c-2.17-3.14-3.67-10.44-3.7-13.31a4.86 4.86 0 0 1 3.7-.74ZM160.26 516.91c.68 3.68 3.75 10.18 0 11.83-3.51-1.67-3.08-7.27-4.43-11.09 1.8-.74 1.57-.25 4.43-.74ZM295.6 521.35c1.33-.1 1.56.9 3 .73-.35 4.72 5.29 13 0 15.53-3.32-3.64-5.61-13-3-16.26ZM136.6 527.26c2.45.81 1.57 7.87 1.48 8.88h-3c-1.61-2.53-.45-7.54 1.48-8.88ZM152.13 529.48c3.28-.32 4.68 1.23 5.18 3.7-2.41 1.86-6.14.11-5.18-3.7ZM116.63 535.4c1.26-.16 1.91 1.26 2.22 0 .16 4.7 3.71 8.49 2.22 12.57-5.15-.91-7.07-7.47-4.44-12.57ZM102.58 540.57c1.32-.09 1.56.91 3 .74 0 7 .62 8.71 2.22 15.53-.88.86-2.62.84-4.44.74-.21-5.34-3.76-13.11-.74-17ZM314.83 541.31c2.48 6 3.81 8.88 3.7 17.75-5.82-2.56-5.4-11.36-8.14-17 .88-.85 2.62-.83 4.44-.74ZM342.93 560.54h1.48c4.58 4 7.45 15.24 5.92 20.71-4.41-4.52-7.91-13.7-7.4-20.71ZM82.61 569.42c.81 5.82 3.74 15.82 1.48 20-3.82-2.35-9.27-20-1.48-20ZM71.52 588.65c1.28 6.51 1 10.61 3 17-1.63-.41-1 1.41-2.21 1.47-3-2.68-8.78-18.58-.74-18.48ZM364.38 589.39h3c.68 6.44 4.57 12.87 3 19.22-5.2-2.75-6.54-13.09-5.92-19.22ZM385.09 637.46c-6-4.14-4.31-15.91-8.88-21.45-.4-1.64 1.41-1 1.48-2.22 8.06 2.66 8.1 18.74 7.4 23.67ZM368.82 624.15a4.16 4.16 0 0 0 3 .73c.17 8.75 3.58 21.17 2.21 26.63-5.48-3.17-6.52-19.06-5.17-27.36ZM399.88 650c-4.85-.6-4-7.14-5.18-11.1-1.36-4.74-4.52-9.66-2.95-14 1.05.07 2.09.13 2.21-.73 5.43 6.33 3.91 19.36 5.92 25.88ZM391 644.85c2.21 6.24 4 12.95 2.95 18.49-5-2.16-10.13-17.38-2.95-18.49ZM415.41 648.55c-1.79 7.76 3.47 14.49.74 18.49-4.88-1.62-9.62-18.67-.74-18.49ZM382.87 652.25c3.64 2.28 2.31 9.52 3.7 14-7.64 1.37-5.34-10.8-6.66-13.31 1-1.82 2.75.81 3-.74ZM53.77 667.78h2.95c3.4 6.45.1 13.53 3.7 20-1 1.94-3.28 1.42-5.17.74-1.16-8.57-1.7-13.37-1.48-20.7ZM367.34 667.78h2.22c2 5.05 4.64 16.06 1.48 21.44-4.38-3.57-4.48-15.15-3.7-21.44ZM436.12 693.66c-6.72-2.16-2.9-14.85-6.66-20a32 32 0 0 1 4.44-3c2.46 5.49 4.3 16.24 2.22 22.93ZM422.81 671.47c3.48 3.76 5 16.21 2.95 20.71-4.51-2.51-7.09-15.19-2.95-20.71ZM403.58 672.21c.54 6.93 2.66 13.73 0 18.49-3.41-1.92-7.82-19.22 0-18.49ZM343.67 673.69h3c.43 2.52 2.06 10.65 2.22 13.32-.63 1.09-2.38 1.06-3.7 1.47-.87-4.2-3.44-10.16-1.48-14.79ZM385.83 673.69c-.92 7 5.64 19.87-1.48 23.67.61-6.75-7.27-21.47 1.48-23.67ZM361.42 688.48h3.7c1.62 5.38 3.73 14.39-.74 18.49-1.45-5.63-3.13-13.52-3-18.49ZM413.19 691.44h1.48c5.48 4.24 2.66 14 4.44 20-2.28-.55-1.42 2-3.7 1.48-.66-6.81-3.67-15-2.22-21.45ZM61.9 726.2h-2.22c-3-5.76-.59-10.54-3-16.27a4.87 4.87 0 0 1 3.7-.74c0-5.66-5.93-12.62 1.48-15.53 2.4 5.49 1.66 14.12 3 20.71a4.21 4.21 0 0 1-3 .74c1.52 4.25.26 7.85 0 11.09ZM341.45 694.4c1.15 6.1.23 9.06 2.22 15.53-1.11.86-1.81 2.14-3.69 2.22-3.46-2.07-.34-6.89-3.7-9.61 2.21-1.59.18-3.6.74-7.4.87-.85 2.61-.84 4.43-.74ZM453.13 698.84c3.67 3.37 8.13 17.4 1.48 20a134.42 134.42 0 0 0-4.44-18.49c1.38-.1 2.47-.49 3-1.48ZM390.27 700.32h3c1.38 4.52 4.58 14.85.73 17.75-4-4-4.38-11-3.69-17.75ZM436.86 703.28c.16 7.24 4.86 16.12 2.22 21.44-4.22-3.12-10.25-19.79-2.22-21.44ZM379.91 708.45c4.92 3 6.53 12.58 2.22 16.27-1.95.23-.58-2.87-3-2.21 2.24-5.79-3.86-9.73.74-14.06ZM351.07 712.89c3.3 3 4.82 12.48 1.48 15.53-5-.3-5.15-13.51-1.48-15.53ZM488.63 715.85c-.16 5.33 1.07 9.28 2.21 13.31-1.4.32-1.85 1.59-3.69 1.48-2.48-5.2-3.5-7.32-3.7-14.79 2-1.44 3.15-1.44 5.18 0ZM470.14 715.11c.28 4.37 6.32 21.1-1.48 20.7.08-6.68-6.7-19.13 1.48-20.7ZM334.8 721h3c.78 6.86 1.93 12.44 1.48 17.74-.86-.12-1.32.17-1.48.74-5.91-1.61-3.93-14.25-3-18.48ZM48.59 721.77c3.85 3.31 2.39 20.6 1.48 25.88-6.38-2.65-3.07-21.55-3.7-25.15a3.43 3.43 0 0 1 2.22-.73ZM530 723.24c.33 8.38 6.44 16.14.74 21.45-.49-3.85-9.67-20-.74-21.45ZM512.29 724c2.13 4.29 1.16 11.67 4.44 14.79-1.74 1.46-1.87 4.55-5.92 3.7 1.22-5.39-1.56-11.24-2.95-16.27.67-1.54 2.18-2.25 4.43-2.22ZM314.09 730.64c2.25 5.41 1.94 13.07 2.22 17h-3.7c0-6.74-6.59-15.82 1.48-17ZM566.28 734.34c-.37 4.56 2.05 6.33 1.48 11.09-6.35 1.21-9.66-11.94-1.48-11.09ZM557.4 738c-1.58 3-.83 4.25-.73 8.14 1.53 1.94 3.11.39 4.43 1.48-1.53 2.66-1.45 6.93-5.17 7.39-5.31-2.34-3.82-11.46-5.18-17.75 2.92-2 4.2-.78 6.65.74ZM324.45 738c1.19-.2 1.27.7 2.21.74-.48 8.6 4.07 20.85 0 27.37-5.32-7-5.3-22-2.21-28.11ZM355.51 739.51c1.12 6.91-.17 15.32 2.21 19.23-1.15 1.06-2.57 1.86-3 3.7-2.81-4.34-8-21.81.74-22.93ZM340.72 747.65h2.95c1.25 6.17 3.61 19.31.74 24.4-4.94-4.21-4.51-19-3.69-24.4ZM34.54 748.39c8.75.21 5 19 3 22.19-4.22-2.23-1.29-15.26-3-22.19ZM649.85 751.35c-.7 5.31 3.43 9.15 1.48 13.31-4.72-.55-10.73-16.53-1.48-13.31ZM612.13 751.35c-1 4.91 5.09 5.94 2.22 10.35-4.8-.27-7.71-5.89-6.65-9.61.87-.85 2.61-.84 4.43-.74ZM311.87 758c-.93 4.87.26 6.93.74 11.83-1.42 1.5-3 1.72-5.17.75.19-2.39-.69-8.18-1.48-11.84 1.74-1.91 3.85-2.55 5.91-.74ZM666.86 756.52c.06 3.89 1.28 6.61 2.22 9.62-1.64 1.71-2.88-.25-5.18 0 0-3.49-1.3-5.61-1.48-8.88 1.75 0 2.18-1.27 4.44-.74ZM621.75 758.74c.63-.14.69.29.74.74.14.84.74.41.74 0 1.86.74-.59 3.28-2.22 3-1.81-1.74 1.1-1.38.74-3.7ZM688.31 762.44c3.4 1.21 3.79 8.79 3 11.84a4.11 4.11 0 0 0-3-.74c-.26-3.64-3.16-8.47 0-11.1ZM364.38 766.14c-.51 9.71 1.16 12.7.74 19.23-1.05-.07-2.09-.13-2.22.74-3.52-4.13-2.85-12.44-3-20 2.77-.07 2.11-.83 4.44 0ZM271.2 771.32h1.48c3.61 2.65 3.52 12.61 2.22 17.75-4.87-1.88-4.16-13-3.7-17.75ZM291.17 772.05c.47 5 2.61 16.58-.74 18.49-1.79-4.76-6.77-17.63.74-18.49ZM20.49 772.8c2.09-.62 1.91 1 3.7.74-.09 8.61 0 18.91 1.47 23.66-3.06.85-2.88-1.56-5.17-1.48-.46-8.41-1.92-15 0-22.92ZM752.65 784.63c-.45 1.28-3.51-.06-3.7 1.48-2.11-2.33-1.16-7.72-4.44-8.88 2.08-8.59 8.59 2.1 8.14 7.4ZM302.26 775c6.32 1 5.15 12.45 4.44 16.27-4.42-2.21-5.38-13.33-4.44-16.27ZM768.18 775c2.09-.61 1.92 1 3.7.74-.35 4.54.62 7.76 3.7 8.88-2.27.94-.62 5.79-5.18 4.44.32-5.21-7-9.17-2.22-14.06ZM124.77 776.49h3.7c1.62 6.35 1.73 10.42 2.95 16.27-6.27 1-6.51-8.88-6.65-16.27ZM327.4 778h3c.64 5.8 4.23 18.75-1.48 20-1.57-3.39-2.84-14-1.48-20ZM32.32 778.71H36a51.82 51.82 0 0 1 1.5 18.49c-7.2-.65-3.09-11.39-5.18-18.49ZM252 778.71c5.35 4.24 3.68 8.53 4.44 15.53-1.79-.3-1.61 1.35-3.7.74-.28-5.06-4-12.33-.74-16.27ZM784.45 793.5c-4.4-1.58-7.09-10.87-5.18-14 5.75.46 6.7 10.92 5.18 14ZM345.15 782.41c0 5.64 2.61 13.31 0 17-3.87-1.76-8.72-18.34 0-17ZM235 783.89c4.32 4.4 5 16.93 1.48 20-2.4-2-5.52-15.54-1.48-20ZM828.82 799.42c-5.26-1.15-6.51-6.3-8.13-11.09 5.24-2.06 9.74 6.3 8.13 11.09ZM263.8 789.07h3c1.23 4.09 3.75 13.45 1.48 16.26-5.28-1.22-5.06-11.57-4.44-16.26ZM320 791.28c-2.34 6.24 1.38 14.83 0 20h-2.22c-3.13-4.22-6.21-23.2 2.22-20ZM354 793.5h4.43c-.89 7.06 1.68 10.66 1.48 17-2.26-.54-2.69.76-4.43.74 1.12-5-3.83-13.39-1.48-17.75ZM279.33 796.46c2.63 4.13 4.63 18.45 1.48 22.93-1.93-5.78-6.87-19-1.48-22.93ZM247.53 797.2c1.78 6.06.45 14.1 2.22 18.49-1.26-.27-1.4.57-1.48 1.48-3.24.77-2.43-2.51-5.18-2.22 5.31-3.06-5.45-17.36 4.44-17.75ZM296.34 797.2c4.73 1.2 5.14 10.63 3.7 15.53-4.46-1.52-5.92-12-3.7-15.53ZM174.31 800.9c5.12 3.11 4.19 12.71 3.7 17.75-5.11-2.29-4.26-10.53-5.91-16.28.59-.63 2-.43 2.21-1.47ZM223.13 802.37a4.74 4.74 0 0 0 3.69.75c-1.66 7.34 3.67 14-1.48 16.27-4.78-2.65-2.68-11.11-2.21-17ZM161 805.33c2.34 6.6 1.39 9.38 3 16.28-1.85.94-2.31-.38-3 .73-3.25-4.65-2.27-9-4.43-16.27.87-.85 2.61-.83 4.43-.74ZM185.41 805.33h3a19.9 19.9 0 0 1 1.48 9.62c1.63-.09.31-3.14.74-4.44h3.69c1.72 4.94 1.07 12.24 4.44 15.53-.18 2-2.75 1.69-3.7 3-3.59-1.1-2.71-6.66-3.69-10.35-5.61 4-6.85-7.44-5.92-13.32ZM335.54 805.33c1.82-.09 3.56-.11 4.44.74-1.65 6.56 1.09 13.09-1.48 17-4.64-1.87-4.31-12.33-3-17.75ZM902 805.33c1 1 3.21.74 5.18.74.47 4.7 4.42 5.93 4.43 11.1-2.15 1.2-3.63-1.37-6.65 0 2.63-3.11-1.84-8-3-11.84ZM209.81 807.55h3c1.1 5.08 1.53 14.73 3 17-7.09 4.49-7.22-12.07-5.92-17ZM369.56 811.25c-1.2 8.39 4.09 19.26-2.22 22.18 2.17-8.12-9.37-20.67 2.22-22.18ZM306.7 815.69c.7 8.64 1.83 12.8 3.69 20.7-1.31 0-2.14 4.16-3.69 1.48-.53-4.4-6.18-15.73-2.22-22.18ZM234.22 817.9c5.36 3.1 4.4 14.39 3 18.49-1.47-1.23-.94.07-3 0 .43-6.19-3.2-14.22 0-18.49ZM349.59 820.13c-.94 4.35.07 8.7.74 14.79h-3.7c-.92-5.48-6.3-17.43 3-14.79ZM260.1 820.86c-.6 8.3 2.56 16.2 0 23.67-3.88-2.85-8.51-24.71 0-23.67ZM1022.59 820.13c5.29 1.12 4.58 8.23 8.13 11.09-1 1.45-4.53.4-5.91 1.48 1.31-3.52-3.88-6.31-4.44-10.36.76-.72 1.5-1.46 2.22-2.21ZM325.19 821.61c-.93 9.08 4.65 15.12.73 21.44-3.36-5.26-4.65-14.87-5.91-20 1.6-.61 2.52-1.91 5.18-1.47ZM265.28 825.3h3c1.82 4.39.64 11.22 3 13.31-6.76 6.22-6.88-7.05-5.92-13.31ZM1044 827.52c1 4.76 6.2 8.93 4.44 14.05-6.48-.17-3.84-9.46-9.61-10.35 0-3.91 2-4.69 5.17-3.7ZM181 829c1.08 4.59 5.27 12.29 2.22 16.27-4.11-1.14-9.22-15.7-2.22-16.27ZM220.91 831.22c4.4-1.35 4.3 4.58 3 6.66 1.46 5.57.65 9.33 2.21 14-1.74 0-2.17 1.28-4.44.75-1.32-8.8-1.75-13-.73-21.45ZM1067 832c5.34 2 6.61 8.18 9.62 12.57-6.32 2-11.34-6.6-9.62-12.57ZM212 834.18c0 3.92 1.93 9.1 0 12.57h-2.95c-.29-5.43-5.91-13.9 2.95-12.57ZM286.73 834.18c-1.85 2.88 1 14.29-1.48 18.49-5.61-1-5.77-19.14 1.48-18.49ZM1096.54 846c-.28 1.69-3 1-3.7 2.22a36.81 36.81 0 0 1-6.65-12.57c6.71-2.42 7.31 6.73 10.35 10.35ZM196.5 837.14h3c.67 7.28 3.56 16.07 3 22.18-.91-.83-1.52-.64-1.48.74-4.33-4.36-5.53-15.59-4.44-22.92ZM1115 838.61c7 1.16 7.4 11.07 8.87 15.53-7.25-2-9-9.28-8.87-15.53ZM243.09 840.09c1.89 3.91 3.33 13.56 0 16.28-3.7-2.19-6.81-14.89 0-16.28ZM360.68 840.09h3c.23 6.32 3 15.69-.74 17.75-3.81-3.09-4.57-12.83-2.22-17.75ZM372.52 860.8c-1.3-4.63-7.43-16.85-2.22-20.71 3.9 5.08 6.25 15.13 2.22 20.71ZM1132 840.83c4.1 4.53 6.59 10.67 8.87 17-7.24 1.32-8.45-9.78-11.09-15.53.6-.63 2-.44 2.22-1.48ZM299.3 846.75h2.22c2.27 2.88.21 12.6 3.7 16.27-1 1.27-1.53 2.91-3.7 3-1-5.86-7.4-14-2.22-19.23ZM317.79 851.92c.94 5.05 6.48 15.52 0 17-1.78-3.47-8.23-17.18 0-17ZM1163.84 853.41c6.92 2.2 8.46 9.78 11.83 15.53-7.54 1.75-11.25-10.31-11.83-15.53ZM1179.37 854.14a26.85 26.85 0 0 1 8.14 11.84c-4.63 2.21-8.85-5.61-10.36-11.1a3.51 3.51 0 0 1 2.22-.74ZM256.41 855.62c3.85 2.81.08 13.24 3.69 16.28-.62 1.59-1.82 2.61-4.43 2.22-1.31-5.89-2.27-9.72-2.22-17.75 1.17-.07 2.82.35 3-.75ZM271.94 855.62c-.88 5.09 1 8.77-.74 13.32-4-2.21-7.45-13 .74-13.32ZM231.26 856.37c1.12 5.07 4.73 16.87.74 20-2.06-5.39-8.92-19.08-.74-20ZM334.06 856.37a3.55 3.55 0 0 0 2.22.74c-1.7 5.86 3.55 14.16-1.48 16.26-3.34-3.07-5.67-14.28-.74-17ZM1223 869.68c-5.48-1.43-10-7.76-11.09-11.09-.12-.87.17-1.32.74-1.48 4.31.48 10 5.73 10.35 12.57ZM210.55 857.11c3.11 5.58 4 15.73.74 20.7-2.85-4.79-2.8-12.48-3.7-19.22.46-1 2.85-.12 3-1.48ZM350.33 860.06c2.26-.54 2.7.76 4.44.74-.22 4.06-.24 14.46.74 17.75.12 1.6-2.63.33-3.7.74-.42-5.52-3.4-12.33-1.48-19.23ZM379.91 860.8c1.33-.09 1.56.9 3 .74-.33 6.93 2.17 12.45 0 19.23-3.58-3.5-6.54-14.08-3-20ZM289.69 867.46h3c1.53 8.65 1.34 15 1.47 22.92-4.85-2.58-5.45-15.17-4.43-22.92ZM1211.17 868.94c1.71 4.32 7.32 8.31 6.66 12.57-4.75 0-8.61-7.09-11.1-11.83.88-.86 2.62-.84 4.44-.74ZM309.65 870.42c1.65 7.81 5.3 16.06.74 21.44-1.19-5.14-9.16-20.66-.74-21.44ZM367.34 871.9c.14 9 2.15 17 .74 22.92-2.86-.66-4.71-8.91-5.18-14.05-.31-3.47.06-7.15 1.48-8.87ZM220.91 874.11c.68 4.77 1 12.88 1.48 17-4.56-1-9.79-16.93-1.48-17ZM246.79 874.11h3c2.55 5.6.18 12.7 1.48 17.75-2.65 1.43-2.71-.28-5.18-.74 1.57-5-.8-11.36.74-17ZM394.7 878.55c2.55 5.51 1.29 14 1.48 20-3.72-2.64-9.2-19.72-1.48-20ZM277.11 881.51c-1.58 3.79.74 8.12.74 12.57-7 1.32-5.05-6.28-5.91-11.09 1.6-.62 2.52-1.92 5.17-1.48ZM343.67 884.47c-.63 6.44 2.72 12.18-.74 17.75-4.73-2-7-18.15.74-17.75ZM266 905.18c-1.42-.32-2.67.5-1.48.74-4 .5-5.8-14.56-3-18.5 6.65 1.84 2.7 11.17 4.44 17.76ZM229.78 888.16h3c.85 6.6 4.84 19.2 1.48 22.93-4.51-5.16-5.27-16.54-4.44-22.93ZM326.66 917.75c-1.4-1.39-1.85-.09-3.69 0 2.51-6.69-3.83-20.47 0-28.11 2.36-.63 2.28 1.17 3.69 1.48-1.53 9.11 1.85 17.43 0 26.63ZM299.3 891.12c2.45 5.49 6.25 16.52 3.7 22.19-3.4-.44-4.32-6.24-5.18-9.61-.91-3.58-2.4-8.35-.74-11.84 1.07.83 1.8.8 2.22-.74ZM285.25 898.52c1.73 4.34 4.5 17.27 0 20.71-2.18-3.62-6.52-21.5 0-20.71ZM381.39 900.74c-.52 5.45.69 9.17 1.48 13.31-.88.85-2.62.83-4.44.74-.79-6.73-5.85-16 3-14ZM405.8 903.7c1 5.73 4.47 12.58 2.22 20.7-3.84-5-5-12.71-6.66-20 .87-.86 2.61-.84 4.44-.74ZM1203.78 917.75c-.6.63-2 .44-2.22 1.48-3.53-3.71-8.91-9.23-8.87-14.05 5.85-.83 8.62 7.57 11.09 12.57ZM354 905.92c6.9 3.41 2.61 16.33 4.43 21.44.13 1.61-2.62.33-3.69.74-.18-6.19-2.92-15.36-.74-22.18ZM255.67 908.13h1.47c1.25 2 4.55 13.15 2.22 16.27-5.34-2-5.35-11.24-3.69-16.27ZM221.65 908.87h1.48c4.65 1.76 3.11 9.71 4.43 14.79-7.07.18-5.63-8.17-5.91-14.79ZM272.68 910.35h2.22c-1.69 3.95 4.63 16.7-3 17.75.45-7.61-3.3-12.47.74-17.75ZM372.52 911.83c-.69 6.83 2.88 14.41-3 17.75 2-9-6.84-17.5 3-17.75ZM1217.09 911.09c5 4.19 10.13 11.06 8.13 16.27-4.85-3-7.48-8.29-9.61-14.05-.41-1.64 1.41-1 1.48-2.22ZM241.61 912.57h3c-1.22 7 5.73 16.67-3 18.49 1.51-5.37-2.59-12.31 0-18.49ZM1149.79 912.57h3c3.14 4 4.31 10 5.91 15.53-1.37.71-2.47-2.21-3 0-3-5.53-6.62-9.38-5.92-15.53ZM1281.43 931.06c-7.32-2-9.17-9.56-14-14-.54-2 1.47-1.49 1.48-3 6 3.47 11.5 11 12.57 17ZM314.09 914.79c.51 7.42 1 13.39 0 20-4.25-1.59-8.32-19.66 0-20ZM1181.6 916.27h3.69c1.23 4.79 7.38 8.24 5.92 13.31-5.91-1.73-8.51-6.77-9.61-13.31ZM1257.77 931.06c-5.91 1.8-9.83-7.44-14.06-11.83 4.88-4.48 11 7.25 14.06 11.83ZM1310.28 917c5.84 2.29 7.54 8.72 10.35 14-5 .2-12.79-9.26-10.35-14ZM394.7 920h4.44c1.25 10-.05 14.37-1.48 20-4.6-2.32-2.56-14.76-3-20ZM1333.2 920.71c.83 7.55 7.72 9 8.14 17-6.47-3.15-10.74-8.5-12.58-16.27.88-.86 2.62-.84 4.44-.74ZM1370.92 935.5c-6-2.67-12.36-8.84-13.31-14 6.59-.36 11.09 7.58 13.31 14ZM1215.61 922.19c2.88 4 4.42 9.38 8.13 12.56-6.57 1.4-10.44-6.3-12.57-11.83.88-.85 2.62-.83 4.44-.73ZM424.29 922.92a125.59 125.59 0 0 0 .74 17.76c-.66-.46-1.33-.9-1.48 0-2.69-2.57-7.77-17.64.74-17.76ZM1395.32 938.45c-6.41.25-11.45-7.27-15.53-11.83 5.29-6.93 11.45 8 15.53 11.83ZM1417.51 924.4c5.5 2.89 10.19 6.57 13.31 11.84-4.85-.23-14.63-5.43-13.31-11.84ZM343.67 926.62c1.56 5.4 3.3 10.94 2.22 17h-4.44c1.31-5.51-.91-10.55-2.21-15.53 1.54-.43 2.11-1.84 4.43-1.48ZM265.28 930.32c5.12.88 1.89 12.08 3 14.79-.63 2.17-1.86-1-3.7 0 2-5.88-4-11.77.74-14.79ZM296.34 930.32c.65 4.78 1.45 12.65-.74 17.75-3.28-1.63-5.93-17.78.74-17.75ZM1452.27 943.63c-6.91-1.47-9.38-7.38-13.31-11.83 6-2.81 11.46 5.76 13.31 11.83ZM334.8 950.29c-4.77-2.12-4.4-10.83-5.18-14.79 2-.29 3.16-3.42 5.18-1.48-.37 4.56 2 10.84 0 16.27ZM235 934a4.16 4.16 0 0 0 3 .73 38.56 38.56 0 0 0 1.48 13.32c-1 1-3.22.73-5.18.74.69-3.47-2.12-10.71.74-14.79ZM253.45 937.72c-.54 5.66 1.45 9.77.74 18.49-4.89-2.07-9.54-18.57-.74-18.49ZM369.56 938.45c1.26-.15 1.91 1.27 2.22 0 2 4.87 1.87 7.55 2.21 14.8-2.08-.61-1.91 1-3.69.74 1.06-3.58-4.22-11.68-.74-15.54ZM1083.23 938.45c1.83-.09 3.57-.11 4.44.74-.08 6.91-1.43 11 .74 15.54-3.24-.32-2.43 2.26-5.18.74-.22-3.74-1.8-11.74 0-17ZM1124.65 953.25c-5.91-1.49-7.36-7.44-10.36-11.84-.54-2 1.47-1.48 1.48-3 5.32 2.16 8.88 9.76 8.88 14.8ZM416.89 953.25c-.67.65-.06 2.25-3 2.22-1.44-4.69-6.39-17.22 1.48-16.28-.46 4 2 9.23 2.22 14.8-.63.13-.7-.29-.74-.74ZM391 941.41c.82 4.8 3.88 12 1.48 15.53-3.63-1.28-9.08-14.63-1.48-15.53ZM1502.56 953.25c-6.63 1-10.74-6.34-14.79-10.35 6.39-3.71 11.33 6.24 14.79 10.35ZM1527 956.94c-7.47.08-12.64-8.54-17-14.05 8.79-1.33 12.43 8.74 17 14.05ZM1110.6 959.9c-6.56-2.32-7.59-10.17-11.84-14.79 6.71-6.08 10.61 8.17 11.84 14.79ZM315.57 945.11c1.84-.11 2.29 1.16 3.7 1.48.07 5.18 2.21 14.61-2.22 14-2.32-2.31-3.54-11.9-1.48-15.53ZM285.25 945.85c1.68 1.9-1.13 11.66 3 14.79-1.83 2.68-3.79 2-6.66.74.83-5.85-2.21-12.76 3.7-15.53ZM1064 945.85c2.8-.33 3.48 1.46 5.18 2.22-1.42 5.15.71 8.24.74 11.83-6.72 1.43-7.31-8.25-5.92-14ZM1206 958.42c-.09 1.4-2.45.51-2.22 2.22-4.93-3.62-12.69-7.8-13.31-13.31 6.57-.58 11 7.19 15.53 11.09ZM1144.61 949.55c6.66 1.73 8 8.76 12.57 12.57-5.36 3-13.73-6.61-12.57-12.57ZM428.72 970.25c.68-4-4-11.13-2.22-16.27 2.33.37 2.9-1.61 4.44 0-1.23 4.69 5.8 14.4-2.22 16.27ZM459 953.25c.91 8.61 2.32 15.28 1.48 20.7-1.78.31-1.6-1.35-3.69-.73 1.61-3.94-6.64-20.17 2.21-20ZM1045.52 954.72c-1.1 6.27-4.48 14-3 18.49-1.51 1.59-2.93-.21-4.44-.74 2.57-6.72-2.22-21.3 7.4-17.75ZM1180.85 956.21c6.65 3.46 11.12 9.09 14.79 15.52-6.9-.3-12.45-8.2-16.27-14.05 1.26.27 1.4-.58 1.48-1.47ZM271.2 956.94c4.29 2.38 3.73 12.69 3.7 17-5.5-2.61-7.12-13.58-3.7-17ZM1052.9 956.94c1.85-.11 2.29 1.17 3.71 1.48-.1 6.45-1.14 9.41 2.21 12.57-1.59.63-2.52 1.92-5.17 1.48-3.22-3.38-2.74-12.86-.75-15.53ZM1244.45 957.68c5.17 4.45 12.33 6.91 15.53 13.31-5.58-.41-18-7.24-15.53-13.31ZM1629 959.16c6.93 2.69 14 9.21 14.8 15.54-4.94-1.91-14.56-8.91-14.8-15.54ZM306 959.9c.36 5.66 4.81 15.32.74 18.49-1.66-4.22-9.39-17.65-.74-18.49ZM328.14 960.64c1.38 5.14 5.75 14.47 1.48 19.23-3.14-3.7-6.62-16.18-1.48-19.23ZM1010.76 965.08c2 0 4.22-.28 5.17.74-.5 7.31-2.47 11.52 0 17-1.26-.28-1.39.58-1.48 1.48-7.52-3.72-2.85-10.34-3.69-19.23ZM1271.08 965.08c7.35 2.8 13.18 10.92 14.05 17.75-5.29-4.57-9.56-10.17-14.79-14.79-.1-1.33.9-1.56.74-3ZM1671.18 981.35c-7.46-1.81-14.06-7.94-14.8-14.05 6.72.3 11.06 8.41 14.8 14.05ZM420.59 967.3c-2.19 7.93 5 14.44-3 14.79 1.12-3.17-5.54-14.61 3-14.79ZM382.87 969.52a4.16 4.16 0 0 0 3 .73c-2.07 8.75 0 15.55-1.48 23.67-6-4.76-5.18-19.22-1.48-24.4ZM340.72 970.25a4.08 4.08 0 0 0 2.95.74c-.17 5.36 2.1 12.19 0 17-4.35-1.89-5.21-14-2.95-17.76ZM475.31 971.73c3.17 4.49.31 14.31.74 18.5-6.19-.22-6.72-19.41-.74-18.5ZM294.12 990.23c-3.89-3.26-4.53-9.77-5.91-15.53 7.72-5.05 6.09 12 5.91 15.53ZM494.54 974c-.21 5.65 3.61 17.3-1.48 20-.42-6.57-7.18-18.74 1.48-20ZM1025.55 974c2.25 0 2.87 1.57 4.43 2.22-1.34 6.22-3.38 9.38 0 14.06-1 1-3.21.73-5.18.73-.24-3.39-2.29-13 .75-17ZM993 974.7c2.32-.36 2.88 1 4.43 1.47-2 7.1-1.83 16.41-4.43 22.93-6.5-3.55-1.5-16.93 0-24.4ZM402.84 976.17c-.55 7.24.09 11.26-1.48 15.53-3.74-1.74-5.79-16.8 1.48-15.53ZM444.25 975.43c1.1 11.33 2.28 21.36 0 25.89-2.3-1-3.11-7.85-3.69-13.31-.44-4.09.05-8.53-.74-11.84 1.8-.74 1.57-.24 4.43-.74ZM1340.6 987.27c-7.53-.12-9.62-5.67-14.8-8.14 3.65-6.17 12.56 3.54 14.8 8.14ZM1693.36 986.53c-4.53-1.39-8.57-3.26-11.09-6.66 2.5-4.71 12.63 2.62 11.09 6.66ZM517.47 981.35c2.25 4.64-.4 14.09-.74 19.23-3-3.11-6.06-17.15.74-19.23ZM356.25 982.09c-.5 4.54 1.33 15.77 0 18.49-5-2.3-7.69-16.89 0-18.49ZM1646 982.83c4.16 3.48 9.45 5.83 10.35 12.57-5.64-2.24-8.13-7.64-14-9.61.14-2.08 1.29-3.15 3.69-3ZM1373.87 991c-3.27-1.41-6.63-2.73-8.13-5.91 3.45-3.22 9.92 1.94 8.13 5.91ZM367.34 984.31c3.14 4.38 3.56 15 2.22 22.92-5.95-2.43-3.65-14-5.18-20.7-.19-3.07 2.87-1 3-2.22ZM1637.16 998.36c-4.15 1.35-12.82-5.36-14.79-11.09 6.8-1.54 11.41 9.22 14.79 11.09ZM318.53 987.27c2.62 4.15 5.43 14.75 3 19.22a26.22 26.22 0 0 1-5.22-18.49c1.05.06 2.09.12 2.22-.74ZM277.11 988.75h2.22c1.66 4.14 4.54 14.93-.74 15.53-1.54-4.08-3.78-12.14-1.48-15.53ZM958.24 991c1 5.75 1.31 12.54-1.48 16.27-3.57-3.71-1.86-10.87-3-15.53 1.52-.53 2.93-2.32 4.44-.74ZM972.3 991c1.49 5.08.74 9.45.74 14.8-1.79-.31-1.61 1.35-3.7.74-1.69-4.3-1.4-8.49-1.48-15.54 2.32.37 2.89-1.61 4.44 0ZM1004.1 990.23c1 .75 2.73.72 3.7 1.47-.81 5.19-1.07 17.91-3 22.19-6.49-2.52.37-11.66-2.22-21.45a2 2 0 0 0 1.48-2.21ZM868 991c1.17 4.19-1.79 9.67.74 13.32-.46 1-2.85.11-3 1.48-3.5-1.73-4.08-15.9 2.22-14.8ZM564.06 993.92c-1.12 3.35 3.86 17.19-3.7 18.49 1.12-6.46-4.38-20.48 3.7-18.49ZM288.94 995.4c3.94 3.87 6.08 18.6 0 22.19-.55-8.19-1.15-12.42-2.21-20.71.59-.64 2-.44 2.21-1.48ZM462 996.14c3.59 3.51 2.54 15.45 1.48 22.92-5-2.7-6.57-19.37-1.48-22.92ZM530.78 996.14H533c1.78 7.11.14 15.07 1.48 20-1.78-.31-1.61 1.35-3.7.74-.3-6-3-13.89 0-20.71ZM820.69 996.14c6.31.35 4.58 11.83 3.7 17-7.26-3.95-4.24-10.53-3.7-17ZM479 996.88h4.44c-.74 6.79.92 19.33-1.48 22.18-4.69-4.57-2.47-14.72-3-22.18ZM751.17 997.62c-3.17 7 6.36 19.64-2.22 20.7.11-5.22-8.48-23.27 2.22-20.7ZM580.33 997.62c1.84-.12 2.29 1.16 3.7 1.48-1.84 6.65-.74 12 1.48 17.75a4.84 4.84 0 0 1-3.7.74c-1.46-7.66-5.92-16.21-1.48-20ZM828.08 997.62h3.7a75.4 75.4 0 0 1 .74 22.18c-7.88-2.14-3.42-15.92-4.44-22.18ZM1504 999.1c4.15 4 13.47 6.66 13.31 12.57-4.83-3.3-11.47-4.8-14.79-9.61-.54-2 1.47-1.49 1.48-3ZM424.29 999.84c2.61 4.17 5.71 18.11 1.47 20-2.26-5.1-5-13-3.69-19.23 1.05.06 2.09.12 2.22-.74ZM680.91 1001.32c-1.71 7.23-3.25 18.89 0 22.92-9 2.28-8.67-24.64 0-22.92ZM929.4 1000.58c1.33-.1 1.56.9 3 .74a53.5 53.5 0 0 1-1.48 24.4c-1.17.06-2.82-.35-3 .74 1.66-7.7-1.09-21 1.48-25.88ZM984.13 1001.32c1.45 4.64-.48 13 0 17-6.28-.4-7.51-17 0-17ZM344.41 1002.06c-1 9.12 2.65 13.43.74 19.23-3.69-1.41-6.18-14.34-5.17-19.23ZM777.05 1002.06c2-.54 1.49 1.47 3 1.48-2.83 7.5 1 12.39-.74 19.22-6.19-2.43-6.78-15.43-2.22-20.7ZM919.05 1002.06c1.41 1.39 1.33-.44 3.7 0 2.13 4.52-.68 14 1.48 18.49-2 2.16-2.87.63-5.18 0 1.41-4.11-.75-11 0-18.49ZM946.41 1003.54c2.26-.54 2.18 1.27 4.44.74-1.13 7.64-1 12.42-1.48 20h-4.44c3.38-5.54-.92-14.69 1.48-20.7ZM1666.74 1014.63c-6.37-.78-8.36-5.93-12.57-8.87 4.81-5 10.81 3.86 12.57 8.87ZM543.35 1005c2.26-.54 2.7.75 4.44.74.33 3.9-2.27 10.65 1.48 15.53-.09 1.63-3.14.31-4.44.74-1.77-4-2.9-12.22-1.48-17ZM700.14 1006.5c-3 5.79 3.57 14.24-.74 17-4.24-1.89-9.25-20.57.74-17ZM308.18 1006.5c3.36 3.62 4.18 13.44 2.95 19.22-6.25-3.51-3-9.73-5.17-17.75.59-.63 2-.44 2.22-1.47ZM510.07 1007.23c.12 4.92 1 9.61-.74 15.53 1 2.45 2.4 5.81-1.48 5.92-.05-5.13-7.06-21.19 2.22-21.45ZM1683 1006.5c3.06 5.81 10.23 7.51 11.83 14.79-7.76-.66-12-10.45-20.7-12.58 1.84-1.85 5.15-2.24 8.87-2.21ZM402.1 1007.23h3c-.57 5.75 1 9.39.74 14.79h-4.44c-1-6-1.05-10.66.74-14.79ZM839.18 1008.71c2.21 5.4 3.62 20.58 0 22.93-2.78-4.3-4.94-17.65 0-22.93ZM329.62 1012.41c.08 7.73 3.16 13.79 0 20.71-1.06-4.13-10.15-19.69 0-20.71ZM1622.37 1012.41c4.38 3.82 11.89 8.24 11.83 14.05-5.46-2.53-14.58-8.12-11.83-14.05ZM596.6 1034.6c-5.84-2.2-8.53-19.15-.74-21.45.93 7.26.53 12.08.74 21.45ZM641 1013.15h2.95c.37 6.2 1.47 11.17 3 17.75-7.32-2.24-7.42-11.66-5.91-17.75ZM1653.43 1013.15a18 18 0 0 1 8.14 9.61c-5.25-.67-8-3.84-10.36-7.39.08-1.4 2.45-.51 2.22-2.22ZM855.45 1015.37c-1 4.92 0 7.73-.74 14.79-7.69.55-1.62-8.58-5.92-11.83.77-2.84 4.33-6 6.66-3ZM764.48 1033.12c-6.46-.76-9.56-14.85-3-17.75 3.61 3 .55 12.1 3 17.75ZM1637.16 1015.37c5.72 1.67 7.76 7 12.57 9.61-5.8 1.77-13.34-4.79-12.57-9.61ZM358.46 1017.59a113.53 113.53 0 0 1 .74 22.18c-6.57-3.8-3.19-14.08-5.17-21.44 2.62-.25 1.82-2 4.43-.74ZM910.91 1016.85c-.16 3.21-1 11.84-.73 15.53-6.74-.31-7.17-16.38.73-15.53ZM377 1017.59c1.85 5.51 2.1 15.86 2.22 20.7-5.77-2.1-9-19-2.22-20.7ZM964.16 1019.8c-1.46 3.1 2.06 17.25-4.43 17.76 0-3.06-4.2-18.9 4.43-17.76ZM388.05 1022h2.22c.29 6.29 4.8 15.76.74 20.71-3.76-4.45-5.26-16.68-3-20.71ZM822.91 1022.76c1.1 9.2-2.33 13.47 1.48 18.49-1.52-1.49-1.48.3-2.22 1.48-1.78.3-1.61-1.35-3.7-.73 1.48-2.71-.05-3-2.22-3.71 3.42-3.18 1.2-8 2.22-14a16.91 16.91 0 0 1 4.44-1.48ZM558.88 1024.24c.47 3.6.11 14.56-.73 17-4.84-1.74-5.09-16.93.73-17ZM618.05 1025c.44 6.4.26 13.49 2.22 20-7.39 2-6.65-13.89-6.66-19.23.88-.85 2.61-.83 4.44-.74ZM738.6 1025c2.32 7.74-2 15.43.74 22.19-9.33-.27-4.28-14.74-4.44-22.19ZM576.64 1026.46c1.69 4.36.64 11.84-1.48 14.79h-3c2.86-5.55-3.13-16.37 4.44-14.79ZM663.16 1025.72c2.09-.61 1.92 1 3.7.74.38 3 1.71 12.25.74 16.27-4.61.89-6.3-13.75-4.44-17ZM720.85 1027.2c-1 9.84 2.26 13.13-1.48 20.71-3.71-2.32-4.61-15.79-2.22-21.45 2.09-.61 1.92 1 3.7.74ZM936.8 1027.94c1.49 7.76-.41 14.08-2.22 20-5.93-2-1.83-14.55-1.48-20ZM496.76 1028.68c.93 7.27 1.63 13.58.74 17.75-4.46-.67-9.39-17.93-.74-17.75ZM535.22 1029.42c.15 7 2.32 14.1.74 18.49-6.49-2.53-2.84-10.85-5.18-17.75.88-.85 2.62-.84 4.44-.74ZM416.89 1030.16c3.16 6.15.74 20.1 1.48 22.93-4.32-1.39-7.27-18.94-1.48-22.93ZM791.1 1030.16a5.61 5.61 0 0 1 5.18 1.48c-1.91 5.73.82 16.1-4.44 18.49.2-4-2.7-14.22-.74-20ZM917.57 1030.9c2.63 4.45-.29 14.14.74 20.71-.86-.12-1.32.16-1.48.74-4.65-5.53-1.22-11.67-3.7-20 1.55-.43 2.11-1.83 4.44-1.48ZM458.3 1031.64c-.44 9.08.83 15.5-2.21 22.19-3.81.82-.59-1.67-.74-3-.77-6.71-6.38-19.23 2.95-19.23ZM520.43 1032.38c1.19-.21 1.27.7 2.22.74-.77 7.82-1.2 18-1.48 22.92-6.65-3.4-4.43-18.62-.74-23.66ZM604.74 1032.38h4.44c.66 6.19 1.91 15.86.73 22.19-1.26-.16-1.91 1.26-2.21 0-2.22-4.75-1.8-14.59-3-22.19ZM467.18 1033.12h3c2.39 7.37 3 13.61-.74 19.23-3.17-2.66-2.55-13.63-2.22-19.23ZM344.41 1034.6c-2.09 3.7.88 10.51-1.48 14.79-5.75-2-2.6-8.93-3.69-14.79 1-1.06 4.19-1.06 5.17 0ZM683.87 1034.6c1.82-.1 3.56-.12 4.44.74-1.78 6.35.77 15-2.22 19.23-6.26-4.15-2.69-11.83-2.22-20ZM779.27 1036.82c-5 6.27.85 13.92-3 20-3.53-3.86-3.27-11.51-4.43-17.74 2.55-.51 4-4.88 7.39-2.22ZM890.2 1036.82c-3.15 6 3 16.5-3 17-1.33-5-5.12-19.11 3-17ZM446.47 1038.29a3.46 3.46 0 0 0 2.22.75c.7 5.75 6.07 16.51-1.48 19.22 2-5.7-5.31-14.09-.74-20ZM837 1039.77c-.68 5.61-2.36 11.19-.74 17-7.69-.49-6.94-19.34.74-17ZM647.63 1040.51h3c1.18 6.38.45 14.29.74 18.49-6.36 2.08-4.18-13.28-3.7-18.49ZM629.14 1041.25c2.65 6-2.64 12.5 0 18.49-2.76.07-2.1.83-4.43 0 .61-6.61-4.45-17.28 4.43-18.49ZM678 1042.73c-1.37 6-1.86 14-.74 18.49-7.54-.1-7.54-19.63.74-18.49ZM754.87 1042.73c-.83 5.83 2.93 14.63-.74 20.71-2.72-3.25-9.36-20.69.74-20.71ZM436.86 1043.47c-.65 11.6 1.71 16.77-.74 22.93-5.83-3.59-4.25-18.41-3-22.93ZM590.69 1045c-1.55 5.17-1.12 13.63 1.48 17-2.71.16-2.84 1-5.18 0-.46-4.58-5.83-22.08 3.7-17ZM327.4 1045c1.12 4.27 3.53 8.77 3 12.58-6-2.46-7.88-9.37-3-12.58ZM902.78 1045.69c-2.12 5.53.46 9.63-1.48 13.31-7.25-1-5.47-16.58 1.48-13.31ZM565.54 1047.17c1 4.83 4 15.36-3 17.75 2.36-5.27-5.18-16.31 3-17.75ZM366.6 1047.91c.28 7.12.88 10.53.74 20-4.37-1.44-9-19.91-.74-20ZM544.09 1048.65c2.26-.54 2.7.75 4.44.74-.28 3.62.69 6.06.74 9.61 0 3 1.32 8.88-3 9.62a65 65 0 0 1-2.22-20ZM489.37 1050.87c-.37 5.86 1.83 13.33-.74 19.23-3.82-3-7.7-18.94.74-19.23ZM342.93 1051.61c1.54.43 2.39 1.55 3.7 2.22-1.95 5.52-1.3 9.66.74 15.53-.59.63-2 .44-2.22 1.48-5.39-1.44-4.71-16.81-2.22-19.23ZM709.75 1053.09c-1 5.79.66 14.4 0 22.18h-3.69c.37-6-1.58-14.83-2.22-22.18a4.26 4.26 0 0 1 5.91 0ZM905.73 1053.83h3a135.12 135.12 0 0 0-.74 15.53c-7 2.65-3.21-11.21-2.22-15.53ZM398.4 1054.57c1.2-.21 1.28.69 2.22.73 1.29 4.67.8 13.42-.74 19.24-4.61-2.87-4-16.44-1.48-20ZM660.2 1058.26h2.22c2.06 4 2.06 15.48 0 21.45-3.73-.74-1.81-5.34-2.22-8.13-.76-5.23-2.15-8.89 0-13.32ZM744.51 1060.48c.66.33 1.33.65 1.48 1.48-2.11 4.64 3.41 17.16-.74 23.67-1.93.2-3.18-.27-3-2.22-4.65 5.18 3.24 16.31-2.21 18.48-4.58-4.28-4.48-13-3-20 2.18-1 4.58-.93 5.91.74.81-8-3-11.27-2.21-19.23a32.1 32.1 0 0 0 3.69-3ZM457.56 1061.22c2.55 4.66 2.53 17.9 2.22 20.71-6-3.38-6.88-16.07-2.22-20.71ZM863.58 1063.44c.33 5.37-1.22 8.08 0 12.57-1.74 0-2.18 1.28-4.44.74-1.68-4.71.08-9.61-.74-14 2.87-.46 3.05-.61 5.18.74ZM876.15 1062.7a37.45 37.45 0 0 1-1.48 17c-4.68-.35-5.64-17.57 1.48-17ZM509.33 1063.44c-.57 5.76 1.41 19.12-.74 22.19h-1.48c-1.93-.61-6.62-21.7 2.22-22.19ZM780 1063.44c.49 5.68 1.23 13.55-.74 19.23-4.56-1-6.85-19.86.74-19.23ZM382.13 1064.92c3.83 2.6 3.32 12.58 3 17-6.87-2-5.64-14.54-3-17ZM617.31 1067.14c-1.21 5.38-1.51 14.3 1.48 17.75-.88.85-2.62.84-4.44.74-3.41-4.72-1.6-10.78-3-17.75 2-1.63 3.65-2.75 5.92-.74ZM467.18 1066.4a3.49 3.49 0 0 0 2.22.74c1.2 5.48.79 15.17-2.22 17-3.37-2.56-3.35-15.21 0-17.75ZM527.82 1067.14h3.7c1.41 6.48 2 19.84-.74 24.4-3-6.11-1.87-16.37-3-24.4ZM794.07 1067.14h2.21c2.16 5.9 5.65 18.63-2.95 18.49 2.86-5.61-3-15 .74-18.49ZM887.25 1067.14c.66.45 1.32.89 1.48 0 1.38 2.3-1.07 7 .74 8.87-.18.81-1.47.51-1.48 1.48-3.16-.78-4.14-3.74-3.7-8.13 1.42-.32 3.18-.27 3-2.22ZM642.45 1069.36c.08 8.07-1.37 16.76 1.48 25.14a2 2 0 0 0-2.22 1.48c-5.48-5.74-3.3-16.31-4.43-25.14 1.6-.62 2.52-1.92 5.17-1.48ZM595.12 1072.32c-2 9.39 2.14 14-2.21 22.18-2.08-4-7-23.91 2.21-22.18ZM575.89 1074.53c-2.11 7.7 1 19.52-2.95 25.15-3.33-7-1.37-16-2.22-24.41 1.65-.51 3.7-2.22 5.17-.74ZM413.93 1074.53c2.79 4.61 5.82 14.12-.74 17-1.21-6.09-1.19-9.09-1.48-15.53.6-.63 2-.44 2.22-1.48ZM697.18 1094.5c-5.1-.58-9.82-21.1-1.48-19.23 1.86 4.81 1.69 14.73 1.48 19.23ZM729.72 1075.27c2.52 7.5-1.39 18.06 1.48 22.19-2.76.07-2.11.83-4.44 0-.47-7.49-1.43-12.68-1.47-21.45 2.26.54 2.17-1.27 4.43-.74ZM676.47 1076c-.26 5.49 1.5 12.39 0 18.49-2.09.61-1.91-1-3.69-.74 1.8-6.78-5.24-16.58 3.69-17.75ZM442.77 1076.75h3c.81 6 3.42 11.9-.74 17-3.25-3.46-4-12.83-2.22-17ZM760 1077.49c1.78-.3 1.61 1.35 3.7.74-.76 5.84 1.93 11.68.74 15.53h-3.7c.07-5.48-3-11.59-.74-16.27ZM848.79 1079.71H851c1.64 4.35 1.52 10.78-.74 14.79-4.26-1.72-2.12-9.88-1.48-14.79ZM838.44 1080.45h3c1 6 2.85 11.5-1.48 14-3.67-2.89-1.87-10.71-1.48-14ZM630.62 1081.93c-1.07 4 4 20.14-2.22 20-1.63-3.21-1.06-12.53-2.95-19.23.95-1 3.21-.73 5.17-.74ZM558.15 1084.15c1.72 3.88-2.46 13.78.73 18.49-1.42 1.49-3 1.72-5.17.74-.06-7.59-.33-12.83 0-19.23 2.32.37 2.89-1.61 4.44 0ZM516.73 1084.89c2.09-.61 1.92 1 3.7.74-1.15 6.37 3.84 15.54-3.7 16.27 1.43-5.93-2.53-12.89 0-17ZM788.89 1086.36c-1.6 7.8 2.83 15.68 0 20-2.17.19-2.27-1.68-4.44-1.49 1.93-5.45-5.37-19.26 4.44-18.49ZM492.33 1090.06c0 6.87 2.54 14.32-3 18.49.58-5.35-5.33-19.06 3-18.49ZM430.2 1093.76c4.21 4 5.44 12.25 1.48 17.75-1.71-2.79-4.83-14.86-1.48-17.75ZM778.53 1094.5c-1.73 3.54-1.18 15.51-3 21.45-4.26-2.09-4-10.23-3.69-14.79.15-2.53 1.39-5.11 1.47-6.66a6.1 6.1 0 0 1 5.18 0ZM660.2 1095.24c.74 7-.61 18.83 0 23.67-7.23-4.62-2-17.15-4.43-22.93.87-.85 2.61-.84 4.43-.74ZM718.63 1095.24c-1.42 6.16-.37 12.72 0 17.75-6.48.66-9-19.26 0-17.75ZM538.92 1098.2c2.09-.61 1.91 1 3.69.74-1.51 6.84 0 15 0 20-7.9-1.59-5-13.7-3.69-20.71ZM617.31 1098.2c2.46 3.39-.56 13.21.74 17.75-1.92.94-2.23 1.62-4.44.74.54-6-4.06-16.38 3.7-18.49ZM462.74 1098.94c2.13 4 2.49 16.13.74 19.23-5.34-1.57-3.43-14.3-3.69-18.49a4.12 4.12 0 0 1 2.95-.74ZM505.64 1098.94h3c-.56 3.72 5.18 20.21-.74 22.19-1.38-6-5.44-16.79-2.22-22.19ZM757.82 1101.16c-4.25 3.46 3.29 19.83-5.17 22.18.09-5.23-4.39-29.67 5.17-22.18ZM577.37 1100.42c-.31 6.59 1.71 11.1 0 15.53-1-.06-2.09-.12-2.21.74-2.78-3-1.6-12.07-2.22-15.53.87-.85 2.61-.84 4.43-.74ZM601.78 1101.16c-.31 5.77.94 14.15 0 17.75-6.06.19-7.93-20.69 0-17.75ZM684.61 1101.16h3.7c1.05 4.37 1.21 9.63 1.47 14.79-2.27-.55-1.41 2-3.69 1.48-1.3-4.71-2.76-11.22-1.48-16.27ZM641.71 1104.85c3-.31 3.86 1.57 5.18 3-3.24 3.9.84 9.71-2.22 14.06-6-.3-3.64-12.5-3-17ZM736.38 1107.07c-2 5.45.19 12.34-.74 17.75h-3.7c2.64-3.62-6.67-23.19 4.44-17.75ZM566.28 1106.34c.89 2.07 2.75 19.94-2.22 18.48-2.9-1.47-.47-12.85-2.22-17.75 2.27.54 2.18-1.27 4.44-.73ZM528.56 1116c1.59 3.34.35 9.51.74 14-8.48-.74-3-8-5.17-12.57 1.54-.43 2.11-1.84 4.43-1.48ZM550 1118.17h3a49 49 0 0 1 2.22 14.79c-6.11-.33-5-10.92-5.18-14.79ZM631.36 1120.39c-2.47 5 1.72 13-1.48 16.27-5.74-.78-7.16-20.67 1.48-16.27ZM592.17 1121.13c-3 4.15.89 11.92-3 14-5.16-.44-4.89-18.38 3-14ZM702.36 1120.39c1.82-.1 3.56-.12 4.44.74-1.45 4-.2 6.3 0 9.61-1.75 0-2.18 1.27-4.44.74-1.18-2.3-1.18-8.8 0-11.09ZM675 1122.61c2.16 4.51 1.88 11.34 2.21 15.53.13 1.6-2.62.33-3.69.73 2.07-6.94-8-15.32 1.48-16.26ZM657.25 1123.34c1 5.94 3.28 17.54-1.48 22.19.26-7.38-7-19.6 1.48-22.19ZM615.83 1126.3c-.82 4.08-.91 11.07.74 14.8.13 1.6-2.62.33-3.7.73-.74-5-5.76-15.59 3-15.53Z" style="fill-rule:evenodd"/>
  <path d="M621 1419.17c-4-2 58.9-31.68 60.53-29.59 2.55 1.86-61.28 31.1-60.53 29.59ZM791.85 1238c6-22.34 24.76-62.1 25.88-59.16-14.3 49.67-44.5 95.25-64.34 144.21-4.87-1.08 24.55-58 38.46-85Zm19.8-63.82c-2-9.71.08-25-1.32-33.05 4.92-2.71 4.38 8 4.44 14.33.06 6.64 1.68 19.92-3.12 18.72Zm-.58-58.2c1.28-9 10.13-13.87 9.62-22.19 2.09.12 3.08 1.36 5.17 1.48a186.83 186.83 0 0 1-7.39 20c-3.54.68-2.8.2-7.4.74Zm-7.39-123.51c-.41-1.64 1.41-1.05 1.48-2.22 1.19-.2 1.27.7 2.22.74-.48 16.06 2.69 37.9 2.21 54-.45 15.23 1.74 30.83 0 46.59-6.11-20-2.66-37-4.43-55.46-1.14-11.81-4.31-28.55-1.48-43.64Zm78.39-8.87c3.2-1 7.14-1.25 11.09-1.48-.22 5.4-2.11 10.72 2.22 13.31-5.19 4.92-9.82 10.39-15.53 14.79 1.25-2.16.92-8-2.22-8.13-4 1.6-1.46 7.75-.74 11.09-8.5 10.73-17.16 21.29-27.36 30.32-.47-3.58 1-5.23 0-7.39-7.47.72-3.58 9.19-5.18 14.79-7.81 6.24-12.91 15.18-20.7 21.45 1-6.61 5.77-19-1.48-20.71-.62 8.31-2.74 16.09 0 22.92-2.24 2-3.24 5.16-5.92 6.66-2-33.11-1.53-59.53-3.7-90.23 9-.39 18.38-2.38 30.32-3 .5 5.66-.24 12.57 4.44 14 1.17-5 .09-9.45 0-14 10-3.14 19.76-1.91 30.32-4.44.24 4.69 0 9.86 2.22 12.57 4-2.12 2.58-9.72 2.22-12.57Zm15.53 10.35c-.91-2.93 1.65-10.49-.74-13.31 5.66-.26 11.16-.68 15.53-2.22-4.46 5.65-9.83 10.39-14.79 15.53Zm26.63-17.75c2.59-.36 4.81-1.1 8.13-.74-36.83 38.12-72.19 77.69-111.67 113.16 1.49-9.39 12.91-15.17 17-24.41 12.88-10.71 23-24.87 34-37.72 3.78-4.4 9.28-7.83 13.31-12.57a82.64 82.64 0 0 1 17-15.53c7.83-5.61 14.05-15.63 22.19-22.19ZM730.46 847.49c.74-15.44-1.05-40.22 2.14-54.24 5 .32 3.24 23.72 2.81 29.09-.86 10.91 1.43 24.22-1.56 33.78-2.52 8.08-17.39 23.78-23.15 29.72-3 3.08-5.88 6.21-8.44 9.38-11.26 9.38-15.58 15.17-25.34 22.52-9.79.23-23.77-.32-27.21-8.76 13.13-21.9 27.21-37.48 39.34-60.75-.26-18.83-3.37-67.18 3-62.86.56 24.22 2.52 41.61 1.48 65.82-.61 14-31.58 38.4-37 58.42 3.81 3.07 10.1 4.48 16.27 3.7 3.38-.37 14.31-12.43 19.16-16.53 3-2.54 6.32-4.69 8.94-7.14 4.69-4.37 9.84-10.55 14.79-16.27 6.62-7.64 14.2-13.4 14.79-25.88Zm-142.73-88a16.12 16.12 0 0 1-2.22-13.31c5 1 .11 9.09 2.22 13.31Zm-413.59-58.82c6.77-13.65 22.32-13 36.75-7.35-6.54 11.79-24.21 7.49-36.75 7.35Zm411.66 39.84c-2.8 2.76-2.8-87.85-1.8-87.51 2.32-5 5.07 90.55 1.77 87.52ZM709 650c1.23-3 7.54-.84 11.09-1.48-.75 4.7-6.72 0-11.09 1.48Zm1.47-6.66c2.65-1.07 7.33-4 10.36-2.22-1.31 2.89-6.43 2-10.36 2.22Zm-152.34-3.7c8.2-2 17.37-.73 20-1.48-3.29 3-16.34 6-20 1.48Zm145-6.65c-.44-9.68 15.91-6 25.14-5.92 1.41 22.64-.26 44.56.74 66.56 2.16 47.46-1.85 81.52-4.43 130.9-.49 9.3 1.38 19.8-.74 28.1-1.88 7.34-13.69 19.06-19.23 24.41-7.73 7.47-16.53 13.2-22.93 20.71-2.78-3.7-7.5-2.65-11.83-.74 8-14.78 25-23 28.84-42.9 1.79-9.32.52-21.85 1.1-34.62.49-10.79-1.25-24.39-1.84-36.37 1.38-46.94 1.11-79.62 3-130.91 4.53 4.18 17.24 3.49 22.19 3 4.2-7.22 4.24-16.33 2.95-25.14-7.16.3-11.09 7.54-18.48 5.18-1.49.23-1.31-5-4.44-2.22Zm-144.25-5.89c7.94.15 11.78.86 17.76-1.48 2.91-.45.86 4.06 1.48 5.92-6.4 1.81-14 .1-20-.74a4.8 4.8 0 0 0 .73-3.7Zm.75-15.53c5.41-1.14 19.78.58 24.4 2.22.7 2.67-2.91 1-4.44 1.48-4.62 7.23-11.89 7.9-20.71 6.65-.19-4.49-1-6 .75-10.35Zm275.11-25.88c-4.49-7.6-7.53-23-10.36-34.76-1.7-2.85 2.7-4.11 3.33-5.37-.24 9 5.29 30.17 7 40.13Zm-5.92 0c-6.18-9.35-8.64-22.42-11.09-35.5 6.08 10.51 7.52 24 11.09 35.5ZM692.74 520.6c13.88.92 23.19.61 36.24 2.22-2.4 30.75-15 54.85-21.44 79.13-.88 3.31-.39 7.08-1.48 10.36-2.24 6.7-7.44 12.48-8.88 19.23-1.28 6-1.35 15-1.48 21.45-.72 38-1.82 86-3 128.68-4.84-.09-7.45-2.41-11.83-3-1.1-4.14-1.25-6.71-3-8.88-5.37-1.58-4 5.94-2.22 7.4-5.65.1-12.31-2.4-18.48-3 6.09-.41 2.67-7.78-.74-10.35-3.37 1.82-2.68 7.48 0 8.88-2.42 2.25-9.12-1.6-14.8-.75a19.27 19.27 0 0 0-3-10.35c-4.43.72-4.15 5.16-2.22 8.13-13.28 1.45-29.83-5.3-45.12-6.65 3.72-3.21-.7-4.23-.73-9.62 0-2.21 1.92-3.42 2.21-5.91.84-7.12-1-21.79-1.48-34-1.44-35.15-2.58-72.7-1.48-105 9.34-13.08 22.94-28.53 34.77-41.41 10.2-11.12 18.5-19.92 28.84-32.54 3.79-4.64 9.59-12.08 12.57-13.32 5.51-2.27 18-1.3 26.62-.74Zm181.51 6.4c-1.21.07-2.89 2.22-3.77 1.57-1.32-1-4.87-6.05-5-7.55-.13-1.19 2.88-1.71 3.77-2.51 1.58 2.51 4.27 5.06 5 8.49Zm-71.31-1.23c-3.87-3.5-7.53-10.78-6.46-12.93.18-.37 6.79 4.66 6.65 5.18 1.11.18-.18 7-.19 7.75Zm2.22-11.09c-8.3-9.45-18.93-16.57-28.85-24.41 10.42-.06 19.76 4.15 31.81 4.44-.25 7.4-1.85 13.44-3 20Zm115.37-28.1c4 1.92 3.43 8.39 7.39 10.35 4.84-.83 6.63-4.71 11.84-5.18 2 12.81 13.55 20.8 11.83 33.28-1 7.51-9.91 24.59-14.79 31.06-10.4 13.79-31.48 15.53-42.16 27.37-9.11-.28-14.31 7.09-21.44 5.91-4.65-.77-19.71-15.78-23.67-20-5.4-5.7-9.57-13.82-16.27-17.75-1.84-11.94 1.18-23.46 1.48-35.5 5.14 3.48 9.86 7.4 13.31 12.57 5.43-1 8.35-4.47 13.31-5.92 2.55 4.36 4.25 9.56 9.62 11.1a32.5 32.5 0 0 0 8.13-5.18c-1.19-4.47-3.88-7.46-4.43-12.57 15.18-10 31.8-18.49 45.85-29.58ZM232 516.91c-2.22-1.11 2.54-1.33 2.22-3 .21-2.68-.09-3.94-2.22-5.18-14.11 1-25.86 10.54-38.46 15.53 4.06-4.51 9.62-7.57 14.8-11.09 4.74-3.23 12-5.38 13.31-11.83-3.48-3.64-9 .63-9.9.68-8.57 5.85-24.26 18.61-21.9 13.37 9.72-7.28 19.15-17.47 31.8-20.71 6-1.54 14.07-1.41 21.44-2.22 18.36-2 36.26-3.9 56.21-5.18 4.47-.28 8.36-.34 12.62-.64 2.94-.22 6.09-.58 8.83-.83 21.16-1.93 44-1.61 65.08-.74 17.26.7 33.94-2.51 49.55-2.22 6.58.12 13 .62 19.23.74 3.12 7.43 15.7 15.19 17.75 23.66-45 1.29-80.55.8-125 3-41.21 2-82.79-11.34-115.37 6.66Zm694.44-31.8c-.31-2.53 2.22-2.22 3-3.7 2.37 1.08 1.86 5 3.7 6.66a7.39 7.39 0 0 1-4.44 2.21 10.46 10.46 0 0 0-2.22-5.17Zm-465.18-.74c3.15-.91 3.18-1.08 4.44-3 4.92 5.68 9.41 11.78 14.05 17.75-.09 2.13-2.6 2.65-3 3.7-5.88-5.46-11.51-11.17-15.53-18.49Zm294.35-28.1c-7.6-.3-9.79-6-14.05-9.62 3.21-1.71 9.6-.26 14.05-.74a17.12 17.12 0 0 1 0 10.36Zm28.1-2.23c-3.25-2.66-6.84-5-8.14-9.61 3.54.41 7.44.46 10.36 1.48-.93 2.53-.53 6.37-2.22 8.13Zm-71-8.13c1-2.17 6.63-.9 8.14-1.48 1.89.77 2.95 4.81 1.47 6.66-4 1.43-7.93-1.12-9.61-5.18Zm-29.58 3.7c-3.75-.33-9.2-5-11.83-8.88a57.77 57.77 0 0 0 9.61 0c.79 2.91 1.48 5.92 2.22 8.88ZM664.64 440c3 10.35 28.67 25.34 22.19 2.22 7.14-.23 11.13 2.67 18.49 2.22 3.78 6.34 12.84 13.58 20 11.84 3.12-3.17 2.37-8.79 3-11.1 13-1.85 15.36 19.91 28.11 16.27 4.89-1.4 6.07-9.41 4.43-16.27 4.46-.12 5.19.62 8.88 0 3.35 5.77 6.87 11.37 13.31 14.05 8.63.25 4.78-12 10.36-14.79 4.45 8.54-1.49 17.19 0 25.15 1.61 8.68 8.86 12.49 13.31 20-31-6-70.36-9.54-100.58-17.75-14.34-3.89-29.41-5.77-40.68-9.61-7-2.41-16.15-6.66-17.75-14.05 2.74-5.86 10.39-8.31 17-8.14Zm133.86-11.84c6.4-1.49 16.63-3.08 21.45-3.7-.64 18.13-7.5 38.8-9.62 59.91-18-11.08-8.41-32.81-11.83-56.21Zm-32.5-8.87c-8 2.8-10.45-2.92-14.05-8.14 4.5 0 10.94 4.34 14.05 8.14Zm162.7 41.41c.24 3.89-6.41 7.38 0 10.36-1.74 1.62-3.94 3.61-2.22 6.65-25.22 14.47-50.13 33.19-76.17 44.37-5.46-2.92-8-8.79-14.79-10.35 4.15-29.55 11-64.28 16.27-92.44 16.57-5.61 34.62-9.75 50.29-16.27 7.25 8.38 15.73 34.25 21.44 48.07 1.39 3.34 5 7.43 5.18 9.61Zm-75.43-47.33c.77-6.49 1.72-9 3-15.53a65.35 65.35 0 0 1 14.73 9.61 114.44 114.44 0 0 1-17.75 5.92Zm22.19-8.14c-.31-7.2 12.31-1.49 11.83-8.87 2.76.45 3.63 2.78 6.65 3-4.06 3.65-12.53 6.6-18.48 5.91Zm-148.66-3c-1.77-2.42-4.53-3.85-4.44-8.14 6 .95 8.8 5 14.06 6.66-1.27 2.43-6.23 1.16-9.62 1.48Zm136.08-6.66a38 38 0 0 1 11.05-9.57c2.48 1-5.15 5.66-7.31 9.42.09 1.88-.48 2.33 1.4 2.42a24.21 24.21 0 0 0 8.87-8.14c3.26-.54 3 2.4 5.18 3-2.88 3.53-8.55 4.26-11.09 8.14-3.4-1-5.44-3.44-8.14-5.18Zm-162-5.92a18.63 18.63 0 0 1-1.48-5.91c2.91 1 5.93 1.95 7.4 4.44-2.67-.2-3.57 1.36-5.92 1.47Zm156.79 3c-2.27-5.87 5.26-7.94 7.39-11.83 2.21 0 2.51 1.92 4.44 2.22-4.58 2.57-8 6.34-11.83 9.61Zm-.07-10.87c.58-.66.77-4 1.54-5.4a3.51 3.51 0 0 0 2.22.74c.23 1.95-1.65 3.12-3.76 4.66Zm-190 2.74c3-11.5 17.87-7.06 25.14-3.7 2.07 2.73 1.64 12.72 6.66 14.79 6.6-1.46 10-3.11 14.79-5.18 4.48 7.31 4.69 16 13.31 17.75 5.49 1.09 10-2.95 16.27-2.22 5 5.81 4.64 17.1 13.32 19.23 5.52 1.36 11-2.57 17-1.48.43 2.67.2 3.74.74 7.4 6 7 18.19-3.68 19.23 5.91-6.43 4.4-16 1.73-25.15 2.22s-19.4.54-28.84 1.48c-11.06-7.43-24.2-17.48-35.5-26.62-13-10.48-26.7-18.23-37-29.58Zm159-5.92c-1.42-1.8 1.44-7.18 3-5.18-.43 2.28-.19 5.24-3 5.18Zm-7.39-6.6c4.22-4 8.64-7.82 10.35-7.39 1 3.23-5.46 6.29-6.32 10.13-1.84.11-2.63-2.42-4-2.74Zm-221.87 49.5c-7.9-21.79-16.19-40.46-22.93-58.42 8.11 2.11 12.91 11.26 20 15.53 3.77 2.28 7 3.94 11.1 7.39 26.79 13.89 45.3 36.05 73.21 48.82-16.69-.05-38.36-.31-35.5 18.48 14.65 16.2 39.78 18.19 62.1 23.7 20.1 4.94 41.18 9.65 62.86 11.1 4.81 6.28 12.28 9.9 17 16.27.33 5.34 3 8.37 5.18 11.83-18.68 37.08-40.45 73.17-61.39 105.75-8.1-.1-12.06-1.12-21.44-.74 2.27-2.65 2-7.87 4.43-10.35 5.15-33.07 24.89-62.7 21.45-93.18-20.81-3-49.93-3.31-71-1.48-25.4 31.29-55.36 58-78.39 91.7-5.59.07-13-2.16-21.45-1.48 1.25-7.67 7.24-16.88 12.58-22.92 3.63-13 9.78-24.27 14.78-37 5.76-14.61 13.3-24.56 19.24-41.42 3-8.64 7-16.57 9.61-23.66 2.29-6.31-5.64-22.72-9.61-32.54-4.06-10-8.73-18.79-11.84-27.37ZM814 368.74c2.41-4.66 8.41-12 13.31-9.36-2.06 4.84-6.21 4.18-10.43 11.09-1.33.09-1.35-1.16-2.88-1.73Zm-6.65-4.18c3.75-4.13 6.85-8.92 13.31-10.36a74.07 74.07 0 0 1-11.83 11.1c-.78 0-.91-.58-1.48-.74Zm-6.66-6.66c4.86-3.75 9.08-10.73 14-7.39-3.18 4-5.92 4-11.09 10.35a2.78 2.78 0 0 1-3-3ZM468.66 475.49c29.7-41.29 55.54-86.45 83.57-129.42 4.65 5.21 12.11 7.62 17 12.57.64 7.25 2.34 13.44 5.92 17.75-3.85 1.45-3.11 3.55-3.7 7.4-27.09 39.48-59.21 73.91-88 111.67-5.37-6.22-11.27-11.91-14.79-20ZM793.33 354.2c4.62-3.08 8.82-10.3 14.79-9.61-2 5.38-8.61 6.18-10.36 11.83-2.21 0-2.51-1.92-4.43-2.22Zm-7.4-5.17c3.82-4.31 7.59-8.68 14.05-10.35 1 .5 1 .88 1 1.26-2.92 4.72-8.15 7.6-12.82 10.57a12.08 12.08 0 0 1-2.22-1.48ZM817 567.93c-4.67-8.38-8.49-23.86-5.18-35.49-.17-2-3.65-.79-4.43-2.22.66-13.09 5.63-23.46 5.91-34.76-.13-1.85 4.54-24.7 7.4-37.72 2.13-9.7 2.35-20 3.69-28.84 4.44-29.1 11.11-58.7 14.06-82.09 5.95-2.46 13.75-8.72 21.45-11.83-2.74 30.64-7.47 50.24-11.1 77.65.56 2.78-2.83 1.61-3 3.7-.73 2.95 2.21 2.22 1.48 5.17-9.89 37.29-16.67 81.23-20 125-1.62.59-3 1.48-3 3.7-2.26-3.9-8.57-2.63-11.83-3 .42 6.58 3.3 12 4.44 20.7Zm-39.2-224.08c3.2-4.69 9.37-6.41 12.58-11.09 1.47 0 2.54 1.62 3 1.48-2.89 4.75-8.38 6.91-11.84 11.09-1.06.57-2.4-1-3.7-1.48Zm-5.91-3.7c.54-3.33 8.32-12.33 12.57-9.61-3.8 3.19-8.07 9.56-12.57 9.61Zm-5.89-4.43c3.66-3.49 5.63-8.68 11.09-10.36 1.85 1.72-9.29 16.12-11.09 10.36Zm-75.43 92.44c3.53 2.72 11.53 5.72 14.79 11.09a64.43 64.43 0 0 0-13.36-1.48c-10.61-8.83-23.92-13.71-35.5-21.44-8.2-5.48-15.06-13.29-22.93-19.23-12.51-9.45-26.62-16.52-39.2-25.15-4.45-3.05-8.12-7.15-12.57-10.35-4-2.87-8-7.31-11.09-9.62-11.15-4.13-18.65-11.91-27.37-18.48-.57-4 1.14-5.77 2.22-8.14 45 23.82 81.13 56.43 120.55 85.79 8.77 5 17.93 9.68 24.41 17Zm154.59-93.4c5.25-3.88 8.93-8.31 14-12.36 3.83 10.82-19 18.51-19.22 18.49-.86-2.57 3.74-5.05 5.2-6.13Zm-22.22 15c-12.78-10.64-27.07-19.76-42.15-28.11 17.34.66 34.39 5.16 50.29 8.14-.63 3.09 2 2.93 3 4.44-.93 7.2 0 16.22-3.69 20.7-2.46-1.29-.15-2.76-1.49-5.17-3.09-.17-3.49 1.2-5.92 0ZM757.82 332c3.33-4.32 8.11-7.18 11.84-11.1a3.38 3.38 0 0 0 2.22.74c-3.45 4.2-7.47 7.82-11.1 11.84-1.09-.39-1.86-1.1-3-1.48Zm41.42 90.22c-21.41-35.75-45.21-67.86-68.78-102.79 32.54 22.65 65.54 40.35 96.14 65.1-2.08 10.73-4.19 21.44-5.17 33.28-8.35 2.79-15.23 3-22.19 4.43ZM749 326.84c5.3-2.34 8.11-7.18 13.31-9.61.66.32 1.32.65 1.48 1.48-1.94 5.21-7.82 6.47-10.35 11.09-1.56-.91-2.88-2.05-4.44-3Zm-.74-1.48c-.54 1.66-2.22-1.63-3.7-1.48 2.26-3.9 4.84-7.48 10.36-8.13-.72 4.22-2.46 3.85-6.66 9.61Zm-8.09-5c.77-3.46 3.31-4.91 6.61-6.84-.46 2-5.09 7.15-3.73 8.56-.17 1.07-2.87-2.95-2.88-1.72Zm99.8 13.13c-1-9.21 9-12.95 11.83-20.71 3.51-.31 3.88 2.52 7.39 2.22-6.35 6.22-11.13 14-19.22 18.49Zm-105.76-17c-2-2.68-5.38-4-8.14-5.92 2.59-.83 7.63 2.22 12.58 1.48a5.59 5.59 0 0 1-4.44 4.44Zm-183.41-.74c6.65-4.65 14.69-17.05 22.19-11.83-2.46 5.93-15.44 7.72-22.19 11.83Zm122-62.86c.09-1.33-.91-1.56-.74-3 3.21 0 5.31 1.09 5.91 3.69-1-1-3.21-.73-5.17-.73Zm21.44 122c-13.16-5.09-27.34-5.4-31.8 8.14 5.39 15.31 23.62 20.64 35.5 31.06 4.19 3.68 7.4 7.29 12.57 11.09 5.94 4.36 12 9.35 17.75 14.05-10.14 2.47-13.22-2.3-20.7-7.39-24.23-16.47-51.36-33.61-73.22-51-27.48-21.9-53.42-43.11-83.57-58.43 7.34-7.4 20-8.36 28.1-13.31 1.68 4.74 4.38 9.35 6.66 14.05 2.19 4.52 2.89 10.68 7.39 13.31 2.52.55 3-1.28 3-2.95-3.36-9.4-9.84-15.14-10.35-25.15a180.67 180.67 0 0 1 31.06 3.7c9.49-16.52 14.44-42.31 22.19-64.34 7.74 1 23.58 6.24 25.14 8.14 66.86 12.39 126.24 35 184.15 54-4.24 4.88-6.91 11.33-11.83 15.53-18.55-4.33-37.22-7-55.47-10.35-40.07-7.26-80-15.5-122.77-20.71-2.44-.3-9.13-5.06-9.61 2.22 20.06 5.81 50.06 6.79 71.74 13.31 13.6 24.86 32.4 50.57 48.81 74.7 5.65 8.31 10.4 17 15.53 25.14 3.61 5.71 9.58 10.8 9.62 17.75-26.92-13.17-66.41-39.56-99.85-52.51ZM605.48 262.5c.88-6.77 7.58-18.05 10.35-22.93 2.56 7.8-6.85 16.28-10.35 22.93ZM624 238.09c3.84.1 6.5 1.38 10.35 1.48-5.16 25.27-12 45-20 66.56-12.79-1.58-18.6-1.91-31.06-2.95-.82-1.19-3.54-3-1.48-5.18 4.15-1.37 7.83 2.61 12.57 3-.68-4.26-4.62-5.24-8.13-6.66 13.85-17.46 30-32.65 37.72-56.21Zm-42.9 53.25c8-16.69 18.6-37.11 28.11-54.73.85-.12 1.31.17 1.47.75-8 19.84-17.37 38.33-29.58 54ZM584 190c.74-1.92 1.3-5-.74-5.91 9 11 21.81 28.47 22.93 47.33-11 18.6-19.2 40-30.33 58.42a16 16 0 0 0-6.65 0c-31.54 13.12-86.47 22.65-111.68-3.7-10.52-11-14.31-26.47-19.22-42.15 21.21-9.1 48.14-11.21 73.21-18.49 4.59-1.33 11.1-1.53 12.58-6.65-6.33-5.76-17.85-6.32-26.63-9.62C523 197.71 555.33 195.47 584 190ZM549.27 66.52c-5-7.81-6.06-19.58-7.4-31.07 6.32 6.27 9.43 18.82 7.4 31.07Zm3 7.39c4.59-13.65 7.76-28.72 14-40.67 6.23 12.46 5.59 37.42-7.4 41.41-3.71 0-7.82-.43-7.39 3.7.47 3.12 3.39 1 4.44 2.22 27.84 37 70.5 77.56 54 139-6.86-19.52-18.57-34.19-29.58-49.55-5.7 1.12-1.34 10.91-1.48 15.53-32 5-67.2 8-91.7 22.92 6.13 6.44 19.09 6.05 27.36 10.36-27 8-56.81 10.13-82.09 23.66 4.63 10.24 6.1 22 11.09 30.32-5.62-.29-14.08-4.15-20.7-5.91 1.95-2.49 5.84-3 7.39-5.92-3.32-4.81-11.42-4.85-17-7.4-.44-2.67 3.83.13 4.44-3-3.13-12.48-8.54-24.9-11.09-39.94-5.86-34.5 4.74-73.94 22.18-95.4 26.85-28.07 79.71-34.83 123.51-41.42ZM834 559.8c13.25 11.2 22.63 26.2 37.72 35.5 6.17-3.07 13.79-2.73 20.7-5.18 8.18-2.9 17-11.28 25.89-15.53 4.2-2 8.71-2.5 11.83-4.43 10-6.2 14.73-17 20-28.11 2.71-5.74 7.43-13.88 7.4-20 0-8.71-6-15.42-8.88-21.44-1.71-3.62-2.07-7.9-3.7-11.1-2.3-4.51-6-7.54-7.39-11.83-.42-1.3.34-3.13 0-4.44-6.75-26-20.59-55-32.54-75.43a17 17 0 0 0-6.66 1.48c-2.85-8.49-14.27-8.41-17.75-16.27-4.51 1.28-5.91-4.23-10.35-5.18.09-1.82.11-3.56-.74-4.44-3.93 1-6-.35-8.87-3.69 4.07-18.76 7.19-42.4 3-59.17-4.17-.52-7.37-2-8.87-5.18-1.74 0-2.18 1.28-4.44.74-52.51-20.29-105.84-38.16-164.18-51-4.57-15.11-30.47-13.4-44.38-17.74-5.91-1.85-12.08-5.26-19.22-5.18-3-.57-2.46 4.72-5.18 2.22-2.16-1.27 1.67-2.69.74-5.18-.79-1.43-3.41-1-4.44-2.22 21.26-69.12-25.72-109.49-51.77-147.91 3.9-2.52 6.68-6.14 10.36-8.87a49.61 49.61 0 0 0 2.21-28.11c-1.2-6.22-2.8-14.21-6.65-17.75-7.81 5-9.51 16.13-14 24.41-3.32-9.83-7-23-17.75-22.93.95 15.29 3.83 29.89 7.39 44.38C508.8 74.42 471.6 82 441.3 97.58c-10.08 10-22.48 18.79-29.59 34-15.7 33.65-13 83.84.74 117.59-4.91 1.07-11.3-1.42-12.57 4.43 5.45 4.41 16.38 3.35 21.44 8.14-1.73 2.7-5.45 3.42-8.13 5.18 7.5 8.3 17.54 5.58 25.89 10.35 5.75 3.29 10 9.59 15.53 14 27.82 22.33 71 19.12 106.49 8.14-5 5.14-10.79 9.42-16.27 14-.3 4 2.07 3.1.74 6.65-6.66 1-7.18 8.1-8.13 14.8 3.76 1.41 6 4.31 8.87 6.65-1.3 2.4-3.71 3.68-3 8.14-28.42 42.08-52.77 88.23-83.56 127.94-4.06 2.13-9.36 0-14.06 0A1974.44 1974.44 0 0 0 214.25 491c-7.09 7.29-18.24 11.89-26.62 18.49-4.82 3.8-11.4 8.24-12.58 14 2.28 2.17 5.63.18 6.66 4.44-.53 3-6.67 3.3-8.87 2.22-9.19 3.87-23 6.3-31.07 8.87-2.23 2.95-6.42 3.93-10.35 5.18-1.42-3.5-1.34-8.52-5.92-8.87-2.11 4.1 1.79 7.88 2.22 11.83-11.3 6.51-20.72 14.84-29.58 23.74.94-3.85-.5-11.2-1.48-15.54-8 .61-2.59 12.8.74 17.75C86 585.33 78.44 601.49 72.26 619c-.43-2.3.2-5.63-2.22-5.92-6.08 1.68-.11 8.58 0 12.57.14 5.26-3.08 9.34-3.7 14a92.15 92.15 0 0 0-4.44-22.18c-7.65 5.61 2 14.45 1.48 22.92 1 1.81 2.75-.81 3 .74-3.05 4.85-1.58 14.2-3.7 20-.24-4.23-1.65-7.68-.74-11.09-9.14.1-2 16.69 1.48 15.53-2.07 17 9.75 34.17 5.18 48.07-6.47 19.68-22.45 38.79-28.1 59.17 2.77 1.53 1 3.32 3.69 5.17 2.93-1.75 6.8-2.57 10.36-3.7.88 3-2.81 16.52 3.69 16.27 1.78-5.1 0-13.55 0-17.74 8-.56 9.4-3.3 16.27-5.18 1.45 1.68-.89 7.24 3 8.13 3.24-.63 1.73-4.87 2.22-9.61 2.13-1.33 5.49-1.42 8.14-2.22v9.61c2.76.07 2.11.83 4.43 0 1.57-3.07-1.38-7.84 0-11.09 3.3-.64 6.06-1.84 9.62-2.22 1.13 2.81-.75 8.64 3 8.87 5.51-1.15.07-7.7 2.22-10.35 4.72 2.19.27 13.55 8.88 11.84.88-2.65-2.89-6.28-3-10.36 8.12 7.13 24.86 8 22.93 22.93 2.26-.54 2.17 1.27 4.44.73.78-4.58-.41-3.36-.74-7.39 5.39 3.73 10.9 7.34 16.27 11.1 2.15 3.64-.69 9.48 5.17 10.35v-8.15c9.95 9.35 23.37 11.43 38.46 8.14-.54 4.47-1.18 8.36 3.7 8.87.65-3.26.09-7.09 1.48-11.09 4.46-.47 7-2.86 11.09-3.7-.41 4.86-.29 11.4 4.44 8.88.46-1.24-.32-7.54 0-11.1 14.92-5.78 27.35-14.06 39.93-22.18 1.91 1.86-.82 6.51 3.7 7.39 1.78-2.2-.45-4.33.74-10.35 4-2.9 9.6-8.14 12.57-9.62.82 5.85-.78 14.1 4.44 15.54.69-4.19 2.05-15.22-2.22-18.49 5.47-2.92 10.59-10.11 14.79-11.83-.52 2.74 1.27 3.17.74 5.91-6.62 1-4.36 13.66-.74 17.75 1.56-9.88 6-18.83 4.44-29.58 8.75-6 13-16.62 20.71-23.67 2.37 3.94-.57 12.11 5.92 13.31 2.49-5.28-2.3-13.88-2.22-21.44 12.71-13.66 20.28-32.47 30.32-48.81-.71 5.71-.33 12.46 2.22 17.75 3-4.69 2.91-18.14 0-22.93 3.37-8.73 11.3-15.93 9.61-27.37.07-1.9 2.89-1 3-2.95-2.79-9.08-12.17-10-15.53-17.75.14.32 1.47-1.19 1.48-1.48.1-4.32-4.64-13.7-7.4-16.27-4.89 3 1.28 9.31 1.48 14-4.1-4-8.71-7.56-12.57-11.83 0-6.64.83-15.72-6.66-17-1.44 4.81 2.71 10 3.7 14.8-2.82-2.11-4.92-4.94-8.13-6.66-2.31-3.57.6-9.94-5.18-11.09-4.09 1.52-.26 3.83-1.48 5.92-5.2-5.16-11.18-9.53-16.27-14.8-1.8-6.46.17-12.12-6.66-13.31-1.7 4.33 1.66 6.27 1.48 11.09-8.09-2.12-6.49-9.36-10.35-15.53-3.5.21-1.58 7.23-2.22 8.14-7.75-1.37-5.54-12.7-9.62-17.75-6.29-.61-.34 8.82-2.21 10.35-4.16-1.26-8.06-2.79-11.1-5.17 3.06.13 2.2-2.5 3-3-4.34-.45-.46-13.9-8.13-13.31-1.6 5.2 1.85 11.34 3 16.27-2.44-2.21-7.9-.16-9.61-4.44-.06-5.53-1.8-11.07-5.92-10.35-2.13 5.13.77 6.4 1.48 11.09-12.59-4.84-27.43-2.58-39.93-3.7 18.43 1 36-10.56 52.5-13.31 7.88-1.31 15.89.75 23.67.74 66.87-.08 134.3.64 196-1.48 2.08-2.5 1.3-3.78 2.22-6.66h3c31.56-40.67 65.74-78.72 96.15-120.54 11.59 32.28 23.89 61.57 35.47 93.87-.7.84-.7 1.26-2.2 4.49a1352 1352 0 0 1-57.68 127.2c-1.26 31.17 1.69 80.78 2.22 120.55 2 .78 5.68 1.39 6.65-.74-3.62-28.08-2.73-56.9-3-83.57 6.31.79 13.61-1.57 20-3 .86 41.43-2.9 81.38 3 116.85-2.47-1-6-.91-8.14-2.22 1.69.21 2.79-.18 3-1.48-4-2.73-3-9.13-3.69-11.83h3.69c-.32-2.63-2.67-3.24-3.69-5.17-8.15 2.79-4.47 12-2.22 18.48-7.84-1.19-16.75-3-22.93-3.7-1.58-6.71-2.26-9.91-4.44-15.52-7.17 1.27.65 11-.74 13.31-4-.23-7.2-1.18-7.39-5.18-13.29 3.64-26.37-2-38.46-5.18-.21-2.5-1.18-4.24-.74-7.39-6.06-.71-4.68 5.29-4.43 7.39-27-5.09-48.24-13.25-76.92-13.31-3.93-5.58-1.52-13.11-5.18-16.27-5.65 1.89-.35 12.77-.73 15.53-13.16-.64-23.38-.5-35.51-1.48-1.47.74-1.16 3.27-3.69 3-4 16.34.23 35.64-1.48 53.25 2 12.58 4.52 22.78 7.39 35.5.18-1.14 1.23-.11 1.48.74 9.85 32.78 25 70.65 46.6 95.4 2 1.36.12 2.5 1.47 3.7 12 14.4 29.48 29.69 49.55 38.45.76 1 .73 2.73 1.48 3.7 24.11 10.22 43.27 14.46 68 22.19 2.55 4.92.34 13.44 3 14.79.21 1.55 2-1.07 3 .74.55-6.68-2-12.12-.74-15.53 17.26 4.19 34.24 8.65 54 10.36 2.64 5.78-1.43 11.95 3.7 14.78 3-2.16.15-10.19 2.21-13.31 4.86.27 9.05 1.9 14.06 2.22-1.27 6.71-1 18.79 3.69 20 3.46-5.21-1.08-12.8 0-20 4.39 2.56 13.51.74 17 2.22-1.83 2.37-1.78 7.75 0 8.87 1.31-4.4.28-4.39 3-8.87a54.6 54.6 0 0 1 11.83-.74c2.21 6.9 1.34 13 4.44 16.27 1.4-6.67-1.06-9.66 1.48-15.53 5.68-1.59 10.2.38 16.27 1.48 8.82-5.54 22.85-1.32 35.5-3 .15 3.21.86 11.84 5.17 13.31 2.45-4.65-1.34-8.83-.73-14a69 69 0 0 0 14-.74c2.37 5.43.28 15.28 5.18 16.27 1.8-4-.44-9.7 0-16.27 18.61-.56 32-4.26 50.28-3.7 1.94 5.19-1.8 16.7 4.44 20.71 1.87-5.88-.37-17.95.74-21.45 2.31 22.67 2.43 47.16 3 64.34.6 19.43 7.2 35 3.7 56.21-35.21 33.49-66 63.33-99.1 101.32-14 8.41-20.61 24.26-34 33.28-.35 4.59-5.15 4.7-5.92 8.87-4.53 2.58-8.37 7.07-11.09 10.36-5.65 6.82-13.91 12.19-20.71 19.23-11.72 12.12-23.86 27.76-37 37-38.34-5.6-83.45 3.14-120.55-3-2.54 6.57-8.71 9.53-11.09 16.27 9.67 4.27 14.46-9.58 25.89-9.61 11.92 0 29.3.79 43.63.73 19.51-.08 36.19-2.36 53.25.74-41.84 6.74-83 17.55-122 22.93-3 6.28-8.41 13.58-8.13 20.71 9.34.6 6.93-12.52 14.05-15.53 2.6-1.11 5.34.53 8.14 0s5.93-3 8.87-3.7c33-8 64-12.14 94.66-17-31.39 15.44-60.73 32.94-91.7 48.81-2.27.54-2.18-1.28-4.44-.74-2.41 5.73-10.77 14.81-5.18 21.45 6.08-1.07 4.2-10.1 7.4-14.06 19.57-7.61 36.41-20 53.25-28.84 18.77-9.86 38.54-22.74 58.42-22.19 5.07-8.19 14-10 26.62-8.87 23.54 2.08 57.21-1.15 75.44 7.4-.16-2.21 2.73-2.52.74-4.44-7.89.66-14.19-4.08-21.45-5.92-21.79-5.53-45.48 2-66.56-3.7 10.4-8.33 14.19-23.27 26.63-29.58 9.26-13.41 20.8-24.56 33.27-34.76 10.11-15.62 24.66-26.19 37-39.19 8.39-8.85 18.81-17.39 26.63-26.63 3.22-3.81 5.31-8.44 8.87-11.83 19.92-19 39.06-37.5 56.95-57.69 4.41 19.12.81 33.09 3.7 54.73.94 1 3.62.32 3.69 2.22-24.8 54.33-50.89 107.37-73.21 164.18-8.24 3.64-9.35 17.72-19.23 20.71-.9.27-4.26-.77-5.18-.74-31 1-74.68 3.31-103.54 6.66-1.29 8.87-17 14.07-11.09 22.92 6.58-4.26 10.25-11.44 15.53-17 29.53-4.41 70.08-7.64 96.14-5.18-38.39 16.49-75.07 30.18-108 51.78-2-2.25-3.35-.55-5.92 0-2.41 7-16.16 25.89-3.7 28.83 3.5-22.38 27.17-24.6 42.16-35.49 20.91-8.67 42.14-21 62.12-28.11-21.61 18.32-41.27 38.61-62.86 57 .12 10-9.26 17.52-5.18 26.63 3.6-.4 6.77-3 4.44-5.18 12.23-20.92 31.1-37.85 48.07-54.73 13-13 27.39-30.88 46.59-37 9.63-3.06 21.58-3.92 32.54-8.13a23.46 23.46 0 0 1 3-.74c9.85-2.15 21.57-4.25 31.8-6.66 4.49-3.52 9.6-2.1 15.53-4.43 4.25 1.17 6.4 4.44 10.36 5.91.87-1.1 3.07-.87 3-3-2.16-5.23-7.9-6.89-12.57-9.61-20.85 7.48-49.28 13.64-68.78 17.75 1.39-7.65 5.57-15.83 9.62-22.93-.94-1.28-2.5-1.94-2.22-4.43 23.74-55.15 54.06-103.72 74.69-162a59.42 59.42 0 0 0-6.65-5.18c-.35-15.9-1.46-37.33-2.22-52.5 12.17 1.46 11.22-20.22 16.27-25.89 0-3-3.46-2.45-4.44-4.44 23.35-22.37 46.79-46.52 68.78-70.25 2.66-2.88 6.8-5 9.62-8.14 7.42-8.32 14.61-18.33 22.18-25.14 4.86-4.38 10.18-5 11.1-11.84 2.56.6 2.84-1.1 5.17-.74-.87 6.45-4.68 15.37 0 20 1.49-3.53 7.07-16.67.74-20.71a76.14 76.14 0 0 0 13.53-2.14c.52 4.91-1.63 12.48 3 13.32 2.61-1.92 1.29-9.32 2.95-14.06 4.76-.65 9.24-1.73 14.05-2.21-1.27 8.11-2.29 23.08 2.22 25.88 2.08-7.33 2-19.78.74-27.36 16.47-1.53 30.3-9.63 45.11-10.35.6 3.59.64 7.74 3 9.61.63-2.17 2.38.44 3.7 0-2.37-4.6-.25-8-1.48-11.83 13.29-2.68 22.7-6.84 34.76-11.1 11.87-4.18 21.73-11 35.5-9.61 17.79 1.85 34.94 9.17 53.25 7.4 5 4.89 7.55 12.17 15.53 14.05-.41-5.77-7-9.22-7.4-12.58 15.34.66 36.24 3.25 51 4.44 1.93 4 5.81 6 8.88 8.88-.1 1.23-3.16-.85-3 2.21 4.41 5.46 9 10.76 17 12.57-1.34-7.11-14.76-9.5-9.61-16.26-2.73-1.72-7.52-5.28-7.39-7.4 11.73 4.59 26-.11 37.72 5.18 4.28 1.92 7 8 11.83 10.35 8.07 3.91 15.72 2.59 24.4 5.92a21.44 21.44 0 0 0 14.8 12.57c.1-6.52-9.15-7.61-8.88-11.83a974.62 974.62 0 0 0 98.36 14.05c3.42.3 7.12-.94 10.35 0 5.76 1.65 9.9 9.82 16.28 9.61-.08-4.6-4.45-4.92-5.92-8.13 6.47 1.38 15.62.88 22.93 3.7 1 7.1 6.9 8.65 14.79 10.35-2.2-5.2-9.55-5.24-11.83-10.35 13 1.83 22.34 3.88 35.49 4.43 4 2.24 8.45 7.68 12.57 7.4 1.29-3.55-5-3.32-3-5.18 9.6.76 17.82 2.9 27.37 3.7-.13 2.08-3.52.92-3 3.7 5.31 4 9 11.19 16.28 11.83-3-6.13-9.75-8.5-12.58-14.79 12.27 1.82 25.13 5.18 36.24 5.91 1.7 5.53 11.66 10.43 16.26 8.14-2.48-2-8.08-4.71-8.13-6.66 10.37 1.61 15.23.66 25.89 1.48 5.86 2.37 8.8 10.46 16.27 8.88-1.09-4.83-8.08-3.76-8.87-8.88 9.92.27 17.94 1.81 27.36 3 8.22 1 21.1 3.65 26.62-1.48-4.64-6.94-19.28-3.89-25.14-9.61a264.85 264.85 0 0 1-44.31-11.89c12.93.49 30.55-4.69 44.38-7.4 3.67-.72 7.24 1.1 8.87-3-.58-.17-.86-.62-.74-1.48-2-2.45-6.87-2-11.09-2.22-1.18-4.23-5.78-14.05-13.31-11.83 1 5 8.5 7.26 8.87 10.35a59.66 59.66 0 0 0-14.05-2.22c-.81-5.82-7.84-17-11.83-10.35.28 2.44 6.8 5 7.39 9.62-10.52-1.56-21-3.22-31.8-4.44-6.45-4.19-9.83-15.26-18.49-14.79 1.29 6.11 9.67 9.06 10.35 13.31-5.7-2-20.21.55-24.4-5.18-10.92 5.91-28.3-1.37-45.12-.74-3.35-4-8.42-14.86-14.78-8.87 2.35 2.33 7.7 5.59 7.39 8.13-11.71 1.21-14-12.27-22.93-13.31-.51 4.59 5.67 8.55 9.62 11.1-6.21-.62-11.8-1.21-17-2.22-3.83-3.89-7.33-11.8-14-10.36.46 5.7 6.44 5.88 8.87 9.62-10.29-.06-18.16-2.54-28.84-2.22-3.09-4.74-6.54-12.43-11.84-12.58-2 5.89 5.94 7.77 7.4 12.58-13.31-1.48-22.65-2.44-28.84-11.1-5.49 1.76.2 5-.74 7.4-7.7-.84-18.09-2.39-24.41-2.22-3.57-3.89-6-12.62-13.3-10.35.75 4.43 7.8 6.47 7.39 9.61-6.23-1.83-13.73-.54-18.49-3-3.86-2-3-6.72-7.4-7.39-3.37 1.23 1.26 5.11 0 5.91-10.38.52-14.46-1.91-23.67-1.48-.28-5-4.46-12.22-10.35-14.05-3.74 5.42 4.68 9.62 6.66 14.05-10.33.59-15.23-1.44-23.67-1.47-3.83-2.82-3.31-10-10.35-9.62-1.49 3 3.2 5.45 3.7 8.87-5.49 10.08-13 5.46-26.63 5.18-2.76-4.36-5.6-11.83-11.09-11.09-.18 5.11 3.49 6.37 5.17 9.61-19.2-1.13-38-5-62.11-5.91-3.6-3.39-5.09-16.51-11.84-11.84-.41 2.67 7.29 7.49 5.92 11.09-18.53-3.36-38.5-2.16-55.47-5.91 7.81-3.53 15.59-7.09 24.41-9.62 1.62.86 2.83 4.36 5.17 2.23 1.27-1-.52-3.42.74-4.44 5.15-3.23 10.89-5.87 16.28-8.88.21 4.34 5.88 9.32 8.87 13.32 2.51-6.76-3.75-14.15-8.13-14 12.33-7.88 27.93-12.5 39.19-21.45-.13 1.6 2.62.33 3.7.74.48-2.17.66-7.88-2.22-8.88a4.11 4.11 0 0 0 3-.74c-2.52-5.07-4.72-13.73-11.1-12.57-.17 6.33 5.54 6.79 6.66 11.83-14 3.78-23.44-2.63-42.16-1.47-1.83-4.43-4.32-11.81-8.13-11.84-3.2 3 2.28 7.35 3 11.1-3.37-1.07-8.21-.68-11.84-1.48-2-3.66-2-9.38-7.39-9.62-3.06 2.38 1.3 4.71 1.48 8.14a247.51 247.51 0 0 0-26.62-6.66c-2.46-3.95-1.7-11.13-8.88-10.35-.61 4.55 3 4.83 3 8.87a40.58 40.58 0 0 1-10.35-2.95c-2.24-4.43-1.11-12.21-8.14-11.84-2 4.19 2.84 6 3 10.35-10.31-.12-15.71-4.49-23.67-5.17-1.93-3.5-1.33-9.52-7.4-8.88-1.85 3.11 2.29 4 0 6.66q-6.78-1-13.31-2.22c-3-2.72-1.31-10-6.65-10.35-4.16 2.26 1.77 7 0 8.87-8.6-1.84-16.32-3.26-22.19-4.44-2.34-3.43-3.51-13.21-11.09-11.09-.9 5.1 5.9 6.4 4.44 9.61-3-.47-6.11-.8-8.14-2.22-.28-10.31-8.79-12.41-8.88-22.92C981.6 815 993.1 828.8 996 829c-4.19 1.37 1.6 6.47 0 7.39-2.81-.31-5.28-1.06-9.61-1.47-1.72-2.72-1.78-7.1-4.44-8.88h-1.48c-3.56 1.47.33 4.65 0 7.4-8.39-1-15.17-3.57-23.67-4.44-1.82-2.36-2.38-6-3.69-8.87 1.69 1.36 3.12 5.77 6.66 3-.78-3.77-3-12.24-9.62-12.57-1.24 2.67.81 5.28 2.22 7.4-1.83-.1-3.56-.12-4.44.74-.75 4 3.29 7 2.22 8.87-3.64-.06-5.94-1.45-8.87-2.22-1.72-4-2.58-11.76-8.14-9.61-2.24 2.6 3.2 6.87 2.22 8.13-3.53.57-4.76-1.15-8.14-.74.1-3.67-1.82-10.14-4.43-11.83a4.84 4.84 0 0 0-3.7.74c.15 4 2.47 5.91 3 9.62-8.53-1.81-20.19-3-30.32-5.18-4.67-5.8-4.47-13.7-9.62-20-7.73 2.14 1.44 12.84 3.7 14-2.7 2.08-.76 2.75-1.48 4.44-7.37-1.25-12.48-4.07-19.23-3-.86-5.49-2.16-12.12-6.66-14-.16.57-.61.86-1.47.74-2.08 4 5.25 8.41 3.7 11.83-5.1-.33-9-1.81-13.32-3-2.17-3.74-1.12-10.71-7.39-10.35-2 3 3.27 8.35 2.22 10.35-4.48 0-7.85-1-11.83-1.48-1.35-2.35-.43-7-5.19-5.91-3.17 1.07.6 4.48-.74 5.17-2.94-.5-5.29-1.61-8.87-1.47-1-3-1.62-12.59-8.13-12.58-2 4 2.24 7.43 3 11.09-8.12.17-8.5-1.9-17-3-2-2.47-1-7.9-4.44-8.87-5.18 1-1.25 4.84-1.48 7.4-5.9-2.49-13.92-2.85-20-5.18-1.74-3.33-1.67-11.07-7.4-9.61-2 2.38 3.09 7 1.48 8.87-5.28-2.11-13.18-1.6-16.27-5.91.19-4.43-.89-7-4.43-5.92-2.56 1.82 1.44 5.78-.74 7.4-2.17-1.53-6.25-1.15-8.14-3a1453.82 1453.82 0 0 0 1.48-155.31c5-19.59 22-32.42 28.84-52.51C775 560 783.77 539.15 794.8 520.6c.07 7.3 9.19 8.76 6.66 16.27 1.62 2 4 .38 5.18 1.48-1.2 9.56.61 24.6 7.39 34.76 3.61 9.71 5.09 21.54 13.31 26.63 2.9-2.45 1.13-5.16 5.92-5.92a6.6 6.6 0 0 0 6.66 4.44c2-10.75-4.89-28.27-5.92-38.46Z" style="fill-rule:evenodd"/>
  <path d="M147 800.9c1.65.11-1 1.86 0 3.7h-3.7c-1.24-4.43-1.69-9.65-2.95-14.06.59-.63 2-.44 2.21-1.47 5.11.49 3.05 12 4.44 11.83ZM264.54 973.21c1.23.8-2.24 3.14-4.44 3 3.25-5.73-6.45-20 3-22.19.68 7.15.44 14.72 1.48 19.23ZM358.46 973.21c.8-5.82-3.92-9.68-2.95-16.27 1.1-.86 3-.91 3.69-2.22 1.57 3.38 1.87 15.54 3 19.23-.08 1.41-2.76-.59-3.71-.74Z" style="fill-rule:evenodd"/>
  <path style="fill:#fff;fill-rule:evenodd" d="m823.58 548.22 1.01 3.09 3.03-4.73-.19-2.27-3.85 3.91z"/>
</svg>
